<svg width="986" height="491" viewBox="0 0 986 491" fill="none" xmlns="http://www.w3.org/2000/svg">
<path d="M472.12 1.08995C470.98 1.55995 469.44 2.95996 468.77 4.23996C467.63 6.37996 467.57 14.0099 467.57 191.53C467.57 369.11 467.64 376.67 468.77 378.82C470.24 381.5 473.39 382.97 477.61 382.97C482.36 382.97 485.11 381.5 486.65 378.15C487.92 375.34 487.99 372.13 487.99 191.53C487.99 10.9299 487.92 7.71996 486.65 4.90996C485.71 2.83996 484.71 1.75995 483.04 1.08995C480.08 -0.180049 474.93 -0.180049 472.12 1.08995Z" fill="black"/>
<path d="M338.91 102.5C337.71 103.17 336.3 104.64 335.76 105.78C334.15 108.79 293.86 250.5 293.86 252.97C293.86 256.12 295.47 259.53 297.61 260.94C299.35 262.08 301.96 262.14 331.81 262.48L364.14 262.81L364.27 279.54C364.47 298.35 364.74 299.49 369.22 301.63C372.5 303.17 378.79 302.77 381.4 300.83C384.48 298.55 384.81 296.28 384.81 278.67L384.88 262.47H396.79C407.5 262.47 408.84 262.34 410.85 261.13C416.41 257.72 416.41 247.14 410.85 243.73C408.84 242.53 407.5 242.39 396.79 242.39H384.9V226C384.9 208.53 384.63 206.59 381.62 203.91C379.54 202.1 371.91 201.63 368.97 203.17C364.82 205.31 364.49 206.72 364.28 225.46L364.08 242.39H340.79H317.5L336.11 177.26C346.35 141.52 354.72 111.46 354.72 110.52C354.79 107.31 352.31 103.16 349.83 102.15C346.48 100.76 341.52 100.9 338.91 102.5Z" fill="black"/>
<path d="M575.87 102.17C574.73 102.64 573.19 103.91 572.52 104.91C571.38 106.72 571.32 111.07 571.11 200.63C570.98 274.79 571.11 294.94 571.78 296.95C572.98 300.5 575.46 302.17 580.28 302.51C585.03 302.84 588.18 301.57 590.05 298.43C591.32 296.42 591.39 294.48 591.72 260.81L592.05 225.33L604.7 211.41C613.13 202.17 617.55 197.76 617.89 198.36C629.8 220.65 673.51 298.3 675.05 299.9C676.92 301.84 677.86 302.24 680.87 302.51C685.02 302.78 687.97 301.24 690.64 297.29C693.79 292.6 694.39 293.88 661.72 235.17L631.87 181.49L660.79 149.63C676.72 132.09 690.31 116.83 690.98 115.69C693.46 111.14 691.72 104.51 687.43 102.3C683.75 100.43 677.99 101.03 675.31 103.57C674.17 104.64 654.96 125.66 632.67 150.22C610.31 174.79 591.97 194.67 591.91 194.4C591.78 194.13 591.64 174.45 591.58 150.69C591.38 109.19 591.31 107.45 590.04 105.37C589.37 104.17 587.83 102.76 586.63 102.16C583.97 100.9 578.74 100.9 575.87 102.17Z" fill="black"/>
<path d="M309.54 421.98C309.41 422.45 309.34 433.63 309.41 446.75L309.61 470.65L311.35 472.39C313.49 474.53 317.98 475.34 319.25 473.8C320.59 472.13 319.85 470.39 317.11 469.11L314.63 467.97V445.35C314.63 428.62 314.43 422.52 313.83 421.92C312.75 420.84 310 420.91 309.54 421.98Z" fill="black"/>
<path d="M370.65 421.58C370.38 421.78 370.18 425.4 370.18 429.55V437.11L367.7 437.31C365.29 437.51 365.16 437.64 365.16 439.85C365.16 442.06 365.29 442.19 367.64 442.39L370.18 442.59L370.31 458.45L370.51 474.31L372.05 474.51C375.4 474.98 375.53 474.31 375.53 457.84V442.6L380.28 442.4C383.96 442.27 385.23 441.93 385.84 440.99C386.38 440.19 386.38 439.52 385.84 438.65C385.24 437.78 383.97 437.45 380.28 437.31L375.53 437.11V429.95C375.53 425.2 375.26 422.45 374.73 421.92C373.86 421.04 371.38 420.84 370.65 421.58Z" fill="black"/>
<path d="M672.06 421.78C668.91 423.19 665.9 426 664.63 428.74C662.15 434.23 663.69 441.39 668.11 444.67C669.38 445.61 674 448.22 678.49 450.49C688.4 455.51 689.8 456.85 689.8 461.33C689.8 464.14 689.47 464.88 687.59 466.75C685.58 468.76 685.11 468.96 681.16 468.96C677.55 468.96 676.07 468.56 671.45 466.28C667.17 464.2 665.76 463.8 664.82 464.34C659.87 467.49 669.3 473.71 680.08 474.45C684.5 474.72 685.5 474.58 688.11 473.18C694.27 469.83 696.95 462.67 694.54 456.25C693 452.3 690.79 450.56 680.75 445.54C670.44 440.39 668.37 438.38 668.9 433.96C669.1 431.82 669.77 430.41 671.31 428.87C673.25 426.93 673.79 426.79 677.94 426.79C680.42 426.79 684.23 427.33 686.57 428.06C691.19 429.47 693.06 428.86 692.66 426.19C692.33 423.71 687.1 421.71 679.94 421.37C676.41 421.24 673 421.38 672.06 421.78Z" fill="black"/>
<path d="M785.05 421.51C784.72 421.78 784.51 433.69 784.51 447.95V473.99L786.18 474.39C789.46 475.19 789.86 474.06 789.86 463.21V453.24H795.75H801.57L806.92 463.82C811.61 472.99 812.48 474.33 813.88 474.33C814.75 474.33 815.82 473.79 816.22 473.19C816.82 472.19 816.02 470.11 812.07 462.15C807.52 453.11 807.25 452.31 808.39 451.71C811.13 450.17 815.15 445.42 815.89 442.87C818.1 434.9 815.22 427.14 808.66 423.26C805.78 421.52 805.05 421.45 795.54 421.25C790.07 421.11 785.32 421.24 785.05 421.51ZM804.86 427.4C806.06 427.94 807.94 429.48 809.01 430.88C810.62 432.96 810.95 434.03 810.95 437.17C810.95 440.31 810.62 441.39 809.01 443.46C806.33 447.01 803.79 447.88 796.23 447.88H789.87V437.17V426.46H796.23C800.18 426.46 803.46 426.8 804.86 427.4Z" fill="black"/>
<path d="M916.84 422.05C912.82 423.52 909.88 426.2 908 430.08L906.26 433.69L906.46 448.68L906.66 463.74L908.67 467.02C909.94 469.03 911.95 471.04 913.96 472.31C916.91 474.12 917.84 474.32 922.33 474.32C927.95 474.32 930.23 473.38 933.71 469.9C937.93 465.75 938.13 464.88 938.33 450.22C938.46 442.86 938.4 435.63 938.13 434.09C937.59 430.21 934.25 425.46 930.7 423.38C927.02 421.24 920.66 420.64 916.84 422.05ZM926.68 427.4C927.88 427.94 929.76 429.48 930.83 430.88L932.77 433.36V447.89V462.42L930.83 464.9C926.28 470.92 918.11 470.66 913.43 464.36C912.16 462.69 912.02 461.41 911.82 449.7C911.55 434.91 911.75 433.3 914.16 430.42C917.31 426.66 922.2 425.53 926.68 427.4Z" fill="black"/>
<path d="M5.31003 438.58C0.690028 441.26 0.0200195 443.53 0.0200195 455.92C0.0200195 468.37 0.690033 470.65 5.44003 473.26C7.65003 474.53 8.85005 474.67 14.14 474.53C19.16 474.4 20.43 474.13 21.03 473.19C21.57 472.32 21.57 471.65 21.03 470.85C20.43 469.91 19.02 469.58 14.14 469.31C5.37004 468.84 5.37003 468.77 5.37003 455.92C5.37003 443.07 5.37004 443 14.14 442.53C19.03 442.26 20.43 441.93 21.03 440.99C21.57 440.19 21.57 439.52 21.03 438.65C20.43 437.71 19.16 437.51 14 437.38C8.59003 437.17 7.39003 437.37 5.31003 438.58Z" fill="black"/>
<path d="M65.96 438.45C59.87 441.26 58.26 444.94 58.26 456.05C58.26 462.61 58.53 464.82 59.53 466.96C64.01 476.93 78.34 477.13 83.49 467.36C84.9 464.68 85.03 463.54 85.03 455.98C85.03 449.22 84.76 447.01 83.76 444.87C80.68 438.18 72.72 435.3 65.96 438.45ZM76.67 444.54C79.28 447.02 79.82 449.23 79.55 457.19C79.35 464.55 79.35 464.62 77.14 466.76C75.27 468.63 74.53 468.97 71.65 468.97C68.77 468.97 68.04 468.64 66.16 466.76L63.95 464.62V455.99C63.95 447.69 64.02 447.29 65.62 445.55C66.56 444.55 67.9 443.47 68.63 443.14C70.78 442.19 74.99 442.93 76.67 444.54Z" fill="black"/>
<path d="M119.64 437.58C119.37 437.85 119.17 446.15 119.17 455.99V474L120.84 474.4C124.32 475.27 124.52 474.53 124.52 457.87V442.54H130.61C136.9 442.54 138.71 443.01 139.65 445.02C139.98 445.69 140.39 452.52 140.59 460.28L140.92 474.34L142.66 474.54C145.81 474.94 146.01 473.94 145.81 458.41C145.61 445.09 145.48 443.82 144.2 442.14C141.05 437.92 139.98 437.52 129.67 437.32C124.46 437.17 119.91 437.31 119.64 437.58Z" fill="black"/>
<path d="M185.77 438.38C184.3 439.12 182.56 440.32 181.82 441.06C180.01 443.14 179.68 447.82 181.08 450.83C182.15 453.04 183.36 453.84 191.52 457.99C199.28 461.87 200.89 462.88 201.23 464.42C201.63 465.83 201.36 466.5 199.82 467.83C198.08 469.3 197.41 469.44 193.53 469.17C191.05 468.97 187.57 468.3 185.63 467.56C182.75 466.56 182.02 466.49 181.08 467.29C177.67 470.1 183.42 473.85 192.12 474.45C201.16 475.12 206.11 472.24 206.65 466.15C207.12 460.46 205.78 458.92 195.27 453.77C186.1 449.22 184.83 448.15 185.77 445.27C186.71 442.26 193.74 441.72 199.09 444.27C202.04 445.68 203.84 445.01 203.84 442.46C203.84 438.38 191.59 435.63 185.77 438.38Z" fill="black"/>
<path d="M240.79 437.64C240.52 437.84 240.32 444.53 240.32 452.43C240.32 465.95 240.39 466.96 241.79 469.36C244.13 473.64 247.14 474.65 257.12 474.65C262.74 474.65 265.75 474.38 266.29 473.85C266.89 473.25 267.09 468.36 267.09 455.84C267.09 437.37 266.96 436.83 263.61 437.3L262.07 437.5L261.87 453.36L261.74 469.29H255.45C249.63 469.29 249.09 469.16 247.42 467.55L245.68 465.74V452.3C245.68 442.66 245.48 438.58 244.88 437.98C244.01 437.11 241.53 436.91 240.79 437.64Z" fill="black"/>
<path d="M434.51 438.11C433.97 438.71 433.77 444.2 433.91 456.65L434.11 474.32L435.65 474.52C439 474.99 439.13 474.45 439.13 455.98C439.13 443.46 438.93 438.58 438.33 437.97C437.25 436.91 435.44 436.97 434.51 438.11Z" fill="black"/>
<path d="M483.77 437.58C483.5 437.85 483.3 446.15 483.3 455.99V474L484.97 474.4C488.45 475.27 488.65 474.53 488.65 457.87V442.54H494.74C501.03 442.54 502.84 443.01 503.78 445.02C504.11 445.69 504.52 452.52 504.72 460.28L505.05 474.34L506.79 474.54C509.94 474.94 510.14 473.94 509.94 458.41C509.74 445.09 509.61 443.82 508.33 442.14C505.18 437.92 504.11 437.52 493.8 437.32C488.59 437.17 484.04 437.31 483.77 437.58Z" fill="black"/>
<path d="M549.84 438.51C548.17 439.38 546.56 440.85 545.69 442.46C544.35 444.8 544.22 446.01 544.22 455.91C544.22 466.29 544.29 466.95 545.89 469.63C548.23 473.71 550.71 474.65 558.88 474.65H565.64V477.73C565.64 484.02 563.9 485.29 555.47 485.36C547.91 485.36 546.9 485.63 546.9 487.7C546.9 490.44 548.31 490.85 556.54 490.58C564.84 490.38 566.25 489.84 569.26 485.76C570.6 484.02 570.67 482.95 570.87 461.46C571 445.19 570.87 438.77 570.27 438.1C569.67 437.36 567.46 437.16 561.03 437.16C553.92 437.17 552.18 437.37 549.84 438.51ZM565.63 455.92V469.31H559.34C553.52 469.31 552.98 469.18 551.31 467.57C549.57 465.83 549.57 465.7 549.57 455.79C549.57 446.08 549.64 445.75 551.24 444.21C552.71 442.67 553.38 442.54 559.27 442.54H565.63V455.92Z" fill="black"/>
<path d="M737.93 467.56C737.73 468.03 737.66 469.77 737.8 471.38C738 473.86 738.27 474.39 739.54 474.53C740.41 474.66 741.55 474.4 742.08 473.99C743.22 472.99 743.35 468.57 742.21 467.43C741.14 466.36 738.39 466.42 737.93 467.56Z" fill="black"/>
<path d="M859.08 467.56C858.88 468.03 858.81 469.77 858.95 471.38C859.15 473.86 859.42 474.39 860.69 474.53C861.56 474.66 862.7 474.4 863.23 473.99C864.37 472.99 864.5 468.57 863.36 467.43C862.29 466.36 859.55 466.42 859.08 467.56Z" fill="black"/>
<path d="M980.9 467.56C980.7 468.03 980.63 469.77 980.77 471.38C980.97 473.86 981.24 474.39 982.51 474.53C983.38 474.66 984.52 474.4 985.05 473.99C986.19 472.99 986.32 468.57 985.18 467.43C984.11 466.36 981.37 466.42 980.9 467.56Z" fill="black"/>
</svg>
