<svg width="346" height="185" viewBox="0 0 346 185" fill="none" xmlns="http://www.w3.org/2000/svg">
<path d="M152.46 179.37C152.37 179.44 152.3 180.03 152.3 180.63C152.3 181.66 152.37 181.78 152.89 181.92C153.24 182.01 153.64 181.94 153.83 181.78C154.25 181.43 154.3 179.88 153.9 179.48C153.59 179.18 152.72 179.11 152.46 179.37Z" fill="white"/>
<path d="M165.72 0.870068C165.32 1.03007 164.78 1.53017 164.55 1.97017C164.15 2.72017 164.13 5.38995 164.13 67.5C164.13 129.63 164.15 132.28 164.55 133.03C165.07 133.97 166.17 134.48 167.64 134.48C169.3 134.48 170.26 133.96 170.8 132.79C171.24 131.81 171.27 130.68 171.27 67.5C171.27 4.31995 171.25 3.18991 170.8 2.20991C170.47 1.47991 170.12 1.10983 169.54 0.879834C168.5 0.419834 166.7 0.420068 165.72 0.870068Z" fill="white"/>
<path d="M119.11 36.3499C118.69 36.5799 118.2 37.0998 118.01 37.4998C117.45 38.5498 103.35 88.1298 103.35 88.9998C103.35 90.0998 103.91 91.2899 104.66 91.7899C105.27 92.1899 106.18 92.2099 116.63 92.3299L127.94 92.45L127.99 98.2996C128.06 104.88 128.15 105.28 129.72 106.03C130.87 106.57 133.07 106.43 133.98 105.75C135.06 104.95 135.17 104.16 135.17 97.9998L135.19 92.3299H139.36C143.11 92.3299 143.58 92.2797 144.28 91.8597C146.22 90.6697 146.22 86.9699 144.28 85.7699C143.58 85.3499 143.11 85.2996 139.36 85.2996H135.19V79.5599C135.19 73.4499 135.1 72.7699 134.04 71.8299C133.31 71.1999 130.64 71.0297 129.61 71.5697C128.16 72.3197 128.04 72.81 127.97 79.37L127.9 85.2899H119.75H111.6L118.11 62.4998C121.69 49.9898 124.62 39.4797 124.62 39.1497C124.64 38.0297 123.78 36.5701 122.91 36.2201C121.76 35.7401 120.03 35.7799 119.11 36.3499Z" fill="white"/>
<path d="M202.02 36.2302C201.62 36.3902 201.08 36.8402 200.85 37.1902C200.45 37.8202 200.43 39.3404 200.36 70.6804C200.31 96.6304 200.36 103.68 200.59 104.38C201.01 105.62 201.88 106.21 203.56 106.32C205.22 106.44 206.32 105.99 206.98 104.89C207.42 104.19 207.45 103.51 207.57 91.7302L207.69 79.32L212.12 74.4504C215.07 71.2204 216.62 69.6701 216.73 69.8801C220.9 77.6801 236.19 104.84 236.73 105.41C237.39 106.09 237.71 106.23 238.77 106.32C240.22 106.41 241.25 105.88 242.19 104.49C243.29 102.85 243.5 103.3 232.07 82.76L221.63 63.9802L231.75 52.8303C237.32 46.6903 242.08 41.3502 242.31 40.9602C243.18 39.3702 242.57 37.05 241.07 36.28C239.78 35.62 237.77 35.8304 236.83 36.7204C236.43 37.0904 229.71 44.4502 221.91 53.0402C214.09 61.6302 207.67 68.5902 207.65 68.5002C207.6 68.4102 207.56 61.5202 207.53 53.2102C207.46 38.6902 207.44 38.0801 206.99 37.3601C206.76 36.9401 206.22 36.4504 205.8 36.2404C204.85 35.7804 203.02 35.7802 202.02 36.2302Z" fill="white"/>
<path d="M108.83 160.79C108.78 160.95 108.76 164.87 108.78 169.46L108.85 177.82L109.46 178.43C110.21 179.18 111.78 179.46 112.22 178.92C112.69 178.33 112.43 177.73 111.47 177.28L110.6 176.88V168.96C110.6 163.11 110.53 160.97 110.32 160.76C109.96 160.4 109 160.42 108.83 160.79Z" fill="white"/>
<path d="M130.22 160.65C130.13 160.72 130.06 161.98 130.06 163.44V166.09L129.19 166.16C128.35 166.23 128.3 166.28 128.3 167.05C128.3 167.82 128.35 167.87 129.17 167.94L130.06 168.01L130.11 173.56L130.18 179.11L130.72 179.18C131.89 179.34 131.94 179.11 131.94 173.35V168.01L133.6 167.94C134.89 167.89 135.33 167.78 135.54 167.45C135.73 167.17 135.73 166.93 135.54 166.63C135.33 166.33 134.88 166.21 133.6 166.16L131.94 166.09V163.58C131.94 161.92 131.85 160.96 131.66 160.77C131.34 160.47 130.47 160.4 130.22 160.65Z" fill="white"/>
<path d="M235.67 160.72C234.57 161.21 233.52 162.2 233.07 163.16C232.2 165.08 232.74 167.59 234.29 168.73C234.73 169.06 236.35 169.97 237.92 170.77C241.39 172.53 241.88 172.99 241.88 174.56C241.88 175.54 241.76 175.8 241.11 176.46C240.41 177.16 240.24 177.23 238.86 177.23C237.6 177.23 237.08 177.09 235.46 176.29C233.96 175.56 233.47 175.42 233.14 175.61C231.41 176.71 234.71 178.89 238.48 179.15C240.03 179.24 240.38 179.2 241.29 178.71C243.44 177.54 244.38 175.03 243.54 172.79C243 171.41 242.23 170.8 238.72 169.04C235.11 167.24 234.39 166.53 234.57 164.99C234.64 164.24 234.87 163.75 235.41 163.21C236.09 162.53 236.28 162.48 237.73 162.48C238.6 162.48 239.93 162.67 240.75 162.93C242.37 163.42 243.02 163.21 242.88 162.27C242.76 161.4 240.94 160.7 238.43 160.58C237.19 160.54 236 160.58 235.67 160.72Z" fill="white"/>
<path d="M275.2 160.63C275.08 160.72 275.01 164.89 275.01 169.88V178.99L275.6 179.13C276.75 179.41 276.89 179.01 276.89 175.22V171.73H278.95H280.99L282.86 175.43C284.5 178.64 284.8 179.11 285.3 179.11C285.6 179.11 285.98 178.92 286.12 178.71C286.33 178.36 286.05 177.63 284.67 174.85C283.08 171.69 282.98 171.41 283.38 171.2C284.34 170.66 285.75 169 286 168.11C286.77 165.32 285.77 162.61 283.47 161.25C282.46 160.64 282.21 160.62 278.88 160.55C276.96 160.49 275.3 160.54 275.2 160.63ZM282.13 162.69C282.55 162.88 283.21 163.42 283.58 163.91C284.14 164.64 284.26 165.01 284.26 166.11C284.26 167.21 284.14 167.59 283.58 168.31C282.64 169.55 281.75 169.86 279.11 169.86H276.89V166.11V162.36H279.11C280.49 162.36 281.64 162.48 282.13 162.69Z" fill="white"/>
<path d="M321.31 160.82C319.9 161.34 318.87 162.27 318.22 163.63L317.61 164.89L317.68 170.14L317.75 175.41L318.45 176.56C318.89 177.26 319.6 177.96 320.3 178.41C321.33 179.04 321.66 179.11 323.23 179.11C325.2 179.11 325.99 178.78 327.21 177.56C328.69 176.11 328.76 175.8 328.83 170.67C328.88 168.09 328.85 165.56 328.76 165.03C328.57 163.67 327.4 162.01 326.16 161.28C324.87 160.54 322.65 160.32 321.31 160.82ZM324.76 162.69C325.18 162.88 325.84 163.42 326.21 163.91L326.89 164.78V169.86V174.94L326.21 175.81C324.62 177.92 321.76 177.82 320.12 175.62C319.68 175.03 319.63 174.59 319.56 170.49C319.47 165.31 319.54 164.75 320.38 163.75C321.48 162.43 323.19 162.03 324.76 162.69Z" fill="white"/>
<path d="M2.39005 166.6C0.770045 167.54 0.540039 168.33 0.540039 172.67C0.540039 177.03 0.770048 177.82 2.44005 178.74C3.21005 179.18 3.63004 179.23 5.48004 179.18C7.24004 179.13 7.68005 179.04 7.89005 178.71C8.08005 178.41 8.08005 178.17 7.89005 177.89C7.68005 177.56 7.19004 177.45 5.48004 177.35C2.41004 177.19 2.41005 177.16 2.41005 172.67C2.41005 168.18 2.41004 168.15 5.48004 167.99C7.19004 167.9 7.68005 167.78 7.89005 167.45C8.08005 167.17 8.08005 166.93 7.89005 166.63C7.68005 166.3 7.23004 166.23 5.43004 166.18C3.54004 166.11 3.12005 166.18 2.39005 166.6Z" fill="white"/>
<path d="M23.6099 166.55C21.4799 167.53 20.9199 168.82 20.9199 172.71C20.9199 175 21.0099 175.78 21.3599 176.53C22.9299 180.02 27.9399 180.09 29.7399 176.67C30.2299 175.73 30.2799 175.34 30.2799 172.69C30.2799 170.32 30.1899 169.55 29.8399 168.8C28.7599 166.46 25.9799 165.45 23.6099 166.55ZM27.3599 168.69C28.2699 169.56 28.4599 170.33 28.3699 173.12C28.2999 175.7 28.2999 175.72 27.5299 176.47C26.8699 177.13 26.6199 177.24 25.6099 177.24C24.5999 177.24 24.3499 177.12 23.6899 176.47L22.9199 175.72V172.7C22.9199 169.8 22.9399 169.66 23.5099 169.05C23.8399 168.7 24.3099 168.32 24.5599 168.21C25.2999 167.87 26.7699 168.12 27.3599 168.69Z" fill="white"/>
<path d="M42.39 166.25C42.3 166.34 42.23 169.25 42.23 172.69V178.99L42.82 179.13C44.04 179.43 44.11 179.18 44.11 173.35V167.99H46.24C48.44 167.99 49.07 168.15 49.4 168.86C49.52 169.09 49.66 171.48 49.73 174.2L49.85 179.12L50.46 179.19C51.56 179.33 51.63 178.98 51.56 173.55C51.49 168.89 51.44 168.44 51 167.86C49.9 166.38 49.52 166.24 45.92 166.17C44.08 166.11 42.49 166.16 42.39 166.25Z" fill="white"/>
<path d="M65.5301 166.53C65.0101 166.79 64.4101 167.21 64.1501 167.47C63.5201 168.2 63.4001 169.84 63.8901 170.89C64.2601 171.66 64.6901 171.94 67.5401 173.4C70.2601 174.76 70.8201 175.11 70.9401 175.65C71.0801 176.14 70.9901 176.38 70.4501 176.84C69.8401 177.36 69.6101 177.4 68.2501 177.31C67.3801 177.24 66.1701 177.01 65.4901 176.75C64.4801 176.4 64.2301 176.38 63.9001 176.66C62.7101 177.64 64.7201 178.95 67.7601 179.17C70.9201 179.4 72.6501 178.4 72.8401 176.27C73.0001 174.28 72.5401 173.74 68.8601 171.94C65.6501 170.35 65.2101 169.97 65.5301 168.97C65.8601 167.92 68.3201 167.73 70.1901 168.62C71.2201 169.11 71.8501 168.88 71.8501 167.99C71.8601 166.53 67.5701 165.57 65.5301 166.53Z" fill="white"/>
<path d="M84.7801 166.27C84.6901 166.34 84.6201 168.68 84.6201 171.45C84.6201 176.18 84.6401 176.53 85.1401 177.37C85.9601 178.87 87.0101 179.22 90.5001 179.22C92.4701 179.22 93.5201 179.13 93.7101 178.94C93.9201 178.73 93.9901 177.02 93.9901 172.64C93.9901 166.18 93.9401 165.99 92.7701 166.15L92.2301 166.22L92.1601 171.77L92.1101 177.34H89.9101C87.8701 177.34 87.6901 177.29 87.1001 176.73L86.4901 176.1V171.39C86.4901 168.02 86.4201 166.59 86.2101 166.38C85.9101 166.09 85.0401 166.02 84.7801 166.27Z" fill="white"/>
<path d="M152.56 166.44C152.37 166.65 152.3 168.57 152.35 172.93L152.42 179.11L152.96 179.18C154.13 179.34 154.18 179.16 154.18 172.69C154.18 168.31 154.11 166.6 153.9 166.39C153.52 166.02 152.88 166.04 152.56 166.44Z" fill="white"/>
<path d="M169.79 166.25C169.7 166.34 169.63 169.25 169.63 172.69V178.99L170.22 179.13C171.44 179.43 171.51 179.18 171.51 173.35V167.99H173.64C175.84 167.99 176.47 168.15 176.8 168.86C176.92 169.09 177.06 171.48 177.13 174.2L177.25 179.12L177.86 179.19C178.96 179.33 179.03 178.98 178.96 173.55C178.89 168.89 178.84 168.44 178.4 167.86C177.3 166.38 176.92 166.24 173.32 166.17C171.48 166.11 169.89 166.16 169.79 166.25Z" fill="white"/>
<path d="M192.91 166.58C192.32 166.88 191.76 167.4 191.46 167.96C190.99 168.78 190.94 169.2 190.94 172.67C190.94 176.3 190.96 176.53 191.53 177.47C192.35 178.9 193.22 179.23 196.07 179.23H198.44V180.31C198.44 182.51 197.83 182.96 194.88 182.98C192.23 182.98 191.88 183.07 191.88 183.8C191.88 184.76 192.37 184.9 195.25 184.81C198.15 184.74 198.65 184.55 199.7 183.12C200.17 182.51 200.19 182.14 200.26 174.62C200.31 168.93 200.26 166.68 200.05 166.45C199.84 166.19 199.07 166.12 196.82 166.12C194.34 166.11 193.73 166.18 192.91 166.58ZM198.43 172.67V177.35H196.23C194.19 177.35 194.01 177.3 193.42 176.74C192.81 176.13 192.81 176.08 192.81 172.62C192.81 169.22 192.83 169.11 193.4 168.57C193.92 168.03 194.15 167.98 196.21 167.98H198.43V172.67Z" fill="white"/>
<path d="M258.72 176.74C258.65 176.9 258.63 177.51 258.67 178.07C258.74 178.94 258.83 179.12 259.28 179.17C259.58 179.22 259.98 179.12 260.17 178.98C260.57 178.63 260.61 177.08 260.22 176.68C259.84 176.32 258.88 176.34 258.72 176.74Z" fill="white"/>
<path d="M301.1 176.74C301.03 176.9 301.01 177.51 301.05 178.07C301.12 178.94 301.21 179.12 301.66 179.17C301.96 179.22 302.36 179.12 302.55 178.98C302.95 178.63 302.99 177.08 302.6 176.68C302.23 176.32 301.27 176.34 301.1 176.74Z" fill="white"/>
<path d="M343.73 176.74C343.66 176.9 343.64 177.51 343.68 178.07C343.75 178.94 343.84 179.12 344.29 179.17C344.59 179.22 344.99 179.12 345.18 178.98C345.58 178.63 345.62 177.08 345.23 176.68C344.85 176.32 343.89 176.34 343.73 176.74Z" fill="white"/>
</svg>
