<svg width="41" height="37" viewBox="0 0 41 37" fill="none" xmlns="http://www.w3.org/2000/svg">
<path d="M37.05 1.49034C35.87 1.96034 2.37998 16.3302 2.37998 16.3302C2.37998 16.3302 0.759994 16.89 0.889994 17.94C1.01999 18.99 2.33995 19.4601 2.33995 19.4601L10.9599 22.4103C10.9599 22.4103 13.5599 31.0903 14.0799 32.7403C14.5899 34.3903 15 34.4303 15 34.4303C15.48 34.6403 15.91 34.2999 15.91 34.2999L21.48 29.13L30.16 35.9C32.51 36.94 33.36 34.7701 33.36 34.7701L39.3399 3.58995C39.8699 1.17995 38.29 0.990339 37.05 1.49034Z" stroke="white" stroke-width="1.2722" stroke-miterlimit="10"/>
<path d="M10.98 22.3999L33.04 7.7002L17.41 26.0801" stroke="white" stroke-width="1.2722" stroke-miterlimit="10" stroke-linecap="round" stroke-linejoin="round"/>
<path d="M15.5801 34.3501L17.4102 26.0801L21.0901 28.8398" stroke="white" stroke-width="1.2722" stroke-miterlimit="10" stroke-linecap="round" stroke-linejoin="round"/>
</svg>
