<svg width="62" height="34" viewBox="0 0 62 34" fill="none" xmlns="http://www.w3.org/2000/svg">
<path d="M54.41 23.73C59.15 27.93 60.13 29.44 60.29 29.69C62.25 32.8 58.1099 33.1802 58.1099 33.1802H49.3899C49.3899 33.1802 47.2699 33.2 45.4499 32C42.4899 30.06 39.3999 26.31 37.2199 26.96C35.3999 27.51 35.41 29.9699 35.41 32.0899C35.41 32.8499 34.76 33.1802 33.29 33.1802C31.82 33.1802 31.21 33.1802 30.56 33.1802C25.78 33.1802 20.6 31.5699 15.43 26.1699C8.10997 18.5299 1.69987 3.14016 1.69987 3.14016C1.69987 3.14016 1.3199 2.37016 1.7299 1.89016C2.1999 1.36016 3.46989 1.4302 3.46989 1.4302H11.93C11.93 1.4302 12.73 1.58 13.3 1.98C13.77 2.31 14.0299 2.93996 14.0299 2.93996C14.0299 2.93996 15.4499 7.63014 17.2599 10.6201C20.7999 16.4601 22.4399 16.6 23.6399 15.98C25.3899 15.07 24.8199 8.85988 24.8199 8.85988C24.8199 8.85988 24.8999 6.18979 23.9799 5.00979C23.2799 4.08979 21.9299 3.59981 21.3399 3.52981C20.8599 3.46981 21.66 2.63018 22.67 2.16018C24.02 1.56018 25.87 1.4002 29.05 1.4302C31.52 1.4502 32.2399 1.59984 33.1999 1.81984C36.1199 2.48984 35.3999 4.26979 35.3999 10.5098C35.3999 12.5098 35.1199 15.32 36.6299 16.25C37.2799 16.65 39.5099 17.14 43.4699 10.71C45.3499 7.65998 46.8499 2.58986 46.8499 2.58986C46.8499 2.58986 47.1599 2.02979 47.6399 1.75979C48.1299 1.47979 48.12 1.48 48.79 1.48C49.46 1.48 56.2099 1.4302 57.6999 1.4302C59.1799 1.4302 60.57 1.40981 60.81 2.27981C61.15 3.52981 59.7199 7.79996 56.0799 12.44C50.1199 20.05 49.45 19.34 54.41 23.73Z" stroke="white" stroke-width="1.3414" stroke-miterlimit="10"/>
</svg>
