<svg width="50" height="38" viewBox="0 0 50 38" fill="none" xmlns="http://www.w3.org/2000/svg">
<path d="M24.9301 2.52002C33.2501 2.52002 39.9499 3.21004 43.1899 3.79004C44.9199 4.25004 46.31 5.41016 46.54 6.91016C47.23 10.6102 47.7 14.5401 47.7 18.5801C47.58 23.5501 47.01 27.59 46.54 30.48C46.19 32.68 43.8799 33.3701 43.1899 33.6001C39.0299 34.4101 32.1 34.9902 25.16 34.9902C18.22 34.9902 11.18 34.5301 7.13 33.6001C5.4 33.1401 4.01003 31.98 3.78003 30.48C2.86003 27.24 2.51001 22.9699 2.51001 18.6899C2.51001 13.3699 2.97005 9.45002 3.43005 7.02002C3.78005 4.82002 6.20003 4.1299 6.78003 3.8999C10.6 3.0999 17.6501 2.52002 24.9301 2.52002ZM24.9301 0.209961C17.3001 0.209961 10.14 0.790098 6.32996 1.6001C3.78996 2.1801 1.59 3.90982 1.13 6.56982C0.670005 9.33982 0.209961 13.5002 0.209961 18.7002C0.209961 23.9002 0.67 27.9401 1.25 30.8301C1.71 33.3701 3.90995 35.2198 6.44995 35.7998C10.49 36.6098 17.43 37.1899 25.05 37.1899C32.68 37.1899 39.61 36.6098 43.65 35.7998C46.19 35.2198 48.39 33.4901 48.85 30.8301C49.31 27.9401 49.89 23.7801 50.01 18.5801C50.01 13.3801 49.43 9.22008 48.85 6.33008C48.39 3.79008 46.19 1.93986 43.65 1.35986C39.6 0.789863 32.5501 0.209961 24.9301 0.209961Z" fill="white"/>
<path d="M21.0001 13.38L27.8701 17.3302C28.9201 17.9402 28.9201 19.4501 27.8701 20.0601L23.3601 22.65C22.3101 23.25 21.0001 22.4999 21.0001 21.2799V13.38ZM21.0402 26.6002L32.4701 20.0699C33.5301 19.4699 33.5301 17.9399 32.4701 17.3399L21.0402 10.8101C19.9902 10.2101 18.6802 10.9703 18.6802 12.1803V25.2403C18.6902 26.4403 19.9902 27.2002 21.0402 26.6002Z" fill="white"/>
</svg>
