<svg width="82" height="82" viewBox="0 0 82 82" fill="none" xmlns="http://www.w3.org/2000/svg">
<path d="M74.8701 0.259766H6.74011C3.22011 0.259766 0.350098 3.1299 0.350098 6.6499V34.3301V74.7798C0.350098 78.2998 3.22011 81.1699 6.74011 81.1699H45.0601C46.2401 81.1699 47.1901 80.22 47.1901 79.04C47.1901 77.86 46.2401 76.9102 45.0601 76.9102H30.1601V64.1401H45.0601C46.2401 64.1401 47.1901 63.1898 47.1901 62.0098C47.1901 60.8298 46.2401 59.8799 45.0601 59.8799H30.1601V47.1099H45.0601C46.2401 47.1099 47.1901 46.16 47.1901 44.98C47.1901 43.8 46.2401 42.8501 45.0601 42.8501H30.1601V30.0801H51.4501V36.4702C51.4501 37.6402 52.4001 38.6001 53.5801 38.6001C54.7601 38.6001 55.7101 37.6502 55.7101 36.4702V30.0801H77.0001V36.4702C77.0001 37.6402 77.9501 38.6001 79.1301 38.6001C80.3101 38.6001 81.2601 37.6502 81.2601 36.4702V6.66016C81.2601 3.12016 78.3901 0.259766 74.8701 0.259766ZM25.9101 76.8999H6.75012C5.58012 76.8999 4.62012 75.95 4.62012 74.77V64.1299H25.9101V76.8999ZM4.62012 59.8701V47.1001H25.9101V59.8701H4.62012ZM25.9101 42.8398H4.62012V34.3198V30.0601H25.9101V42.8398ZM4.62012 25.7998V6.64014C4.62012 5.47014 5.58012 4.50977 6.75012 4.50977H74.8801C76.0601 4.50977 77.0101 5.47014 77.0101 6.64014V25.7998H4.62012ZM77.0001 42.8398H55.7101C53.3601 42.8398 51.4501 44.7501 51.4501 47.1001V76.8999C51.4501 79.2499 53.3601 81.1602 55.7101 81.1602H77.0001C79.3501 81.1602 81.2601 79.2499 81.2601 76.8999V47.1001C81.2601 44.7501 79.3501 42.8398 77.0001 42.8398ZM77.0001 76.8999H55.7101V47.1001H77.0001V76.8999ZM59.9701 57.7402C59.9701 56.5602 60.9201 55.6099 62.1001 55.6099H70.6201C71.8001 55.6099 72.7501 56.5602 72.7501 57.7402C72.7501 58.9202 71.8001 59.8701 70.6201 59.8701H62.1001C60.9201 59.8701 59.9701 58.9202 59.9701 57.7402ZM59.9701 66.25C59.9701 65.07 60.9201 64.1201 62.1001 64.1201H70.6201C71.8001 64.1201 72.7501 65.07 72.7501 66.25C72.7501 67.43 71.8001 68.3799 70.6201 68.3799H62.1001C60.9201 68.3799 59.9701 67.43 59.9701 66.25ZM35.9301 12.4102L33.1801 15.1602L35.9301 17.9102C36.7601 18.7402 36.7601 20.0899 35.9301 20.9199C35.5101 21.3399 34.9701 21.54 34.4201 21.54C33.8701 21.54 33.3301 21.3299 32.9101 20.9199L30.1601 18.1699L27.4101 20.9199C26.9901 21.3399 26.4501 21.54 25.9001 21.54C25.3501 21.54 24.8101 21.3299 24.3901 20.9199C23.5601 20.0899 23.5601 18.7402 24.3901 17.9102L27.1401 15.1602L24.3901 12.4102C23.5601 11.5802 23.5601 10.2299 24.3901 9.3999C25.2201 8.5699 26.5701 8.5699 27.4001 9.3999L30.1501 12.1499L32.9001 9.3999C33.7301 8.5699 35.0801 8.5699 35.9101 9.3999C36.7401 10.2299 36.7601 11.5702 35.9301 12.4102ZM51.4501 15.1602C51.4501 16.3402 50.5001 17.29 49.3201 17.29H47.1901V19.4199C47.1901 20.5999 46.2401 21.5498 45.0601 21.5498C43.8801 21.5498 42.9301 20.5999 42.9301 19.4199V17.29H40.8001C39.6201 17.29 38.6701 16.3402 38.6701 15.1602C38.6701 13.9902 39.6201 13.0298 40.8001 13.0298H42.9301V10.8999C42.9301 9.7299 43.8801 8.77002 45.0601 8.77002C46.2401 8.77002 47.1901 9.7199 47.1901 10.8999V13.0298H49.3201C50.5001 13.0298 51.4501 13.9802 51.4501 15.1602ZM72.7401 15.1602C72.7401 16.3402 71.7901 17.29 70.6101 17.29H58.2001C57.0201 17.29 56.0701 16.3402 56.0701 15.1602C56.0701 13.9902 57.0201 13.0298 58.2001 13.0298H70.6101C71.7901 13.0298 72.7401 13.9802 72.7401 15.1602ZM21.6501 15.1602C21.6501 16.3402 20.7001 17.29 19.5201 17.29H11.0001C9.82012 17.29 8.87012 16.3402 8.87012 15.1602C8.87012 13.9902 9.82012 13.0298 11.0001 13.0298H19.5201C20.6901 13.0298 21.6501 13.9802 21.6501 15.1602ZM62.7201 10.2798C62.3301 9.87979 62.1001 9.32002 62.1001 8.77002C62.1001 8.22002 62.3301 7.65977 62.7201 7.25977C63.5101 6.46977 64.9601 6.46977 65.7401 7.25977C66.1201 7.65977 66.3601 8.22002 66.3601 8.77002C66.3601 9.32002 66.1301 9.87979 65.7401 10.2798C65.3401 10.6598 64.7801 10.8999 64.2301 10.8999C63.6501 10.8999 63.1201 10.6698 62.7201 10.2798ZM65.7401 20.04C66.1201 20.44 66.3601 20.9998 66.3601 21.5498C66.3601 22.0998 66.1301 22.6601 65.7401 23.0601C65.3401 23.4401 64.7801 23.6802 64.2301 23.6802C63.6801 23.6802 63.1201 23.4501 62.7201 23.0601C62.3301 22.6601 62.1001 22.0998 62.1001 21.5498C62.1001 21.2698 62.1601 21.0002 62.2701 20.7402C62.3801 20.4602 62.5301 20.23 62.7201 20.04C63.5201 19.25 64.9301 19.25 65.7401 20.04Z" fill="white"/>
</svg>
