<svg width="82" height="82" viewBox="0 0 82 82" fill="none" xmlns="http://www.w3.org/2000/svg">
<path d="M81.1498 40.71C81.1498 63.01 62.9998 81.1602 40.6998 81.1602C29.7398 81.1602 19.4798 76.8498 11.8098 69.0298C11.0698 68.2698 11.0798 67.0501 11.8398 66.3101C12.5998 65.5601 13.8198 65.5798 14.5698 66.3398C21.5098 73.4198 30.7898 77.3198 40.6998 77.3198C60.8798 77.3198 77.2998 60.9002 77.2998 40.7202C77.2998 20.5402 60.8798 4.12012 40.6998 4.12012C39.6398 4.12012 38.7698 3.25994 38.7698 2.18994C38.7698 1.12994 39.6298 0.259766 40.6998 0.259766C63.0098 0.259766 81.1498 18.4 81.1498 40.71ZM4.10977 40.71C4.10977 23.37 16.4198 8.28984 33.3898 4.83984C34.4298 4.62984 35.1098 3.60982 34.8898 2.56982C34.6698 1.52982 33.6598 0.849824 32.6198 1.06982C13.8698 4.87982 0.259766 21.55 0.259766 40.71C0.259766 48.27 2.35977 55.6398 6.32977 62.0298C6.68977 62.6198 7.31977 62.9399 7.96977 62.9399C8.31977 62.9399 8.66978 62.8499 8.98978 62.6499C9.88978 62.0899 10.1698 60.9 9.60977 60C5.99977 54.21 4.10977 47.54 4.10977 40.71ZM24.3598 21.6401L20.2698 17.5498C19.5198 16.7998 18.2998 16.7998 17.5498 17.5498C16.7998 18.2998 16.7998 19.52 17.5498 20.27L21.6398 24.3599C22.0198 24.7399 22.5098 24.9199 22.9998 24.9199C23.4898 24.9199 23.9898 24.7299 24.3598 24.3599C25.1098 23.6099 25.1098 22.3901 24.3598 21.6401ZM17.5898 40.71C17.5898 39.65 16.7298 38.7798 15.6598 38.7798H9.87978C8.81978 38.7798 7.94977 39.64 7.94977 40.71C7.94977 41.77 8.80978 42.6401 9.87978 42.6401H15.6598C16.7298 42.6301 17.5898 41.77 17.5898 40.71ZM21.6398 57.0498L17.5498 61.1401C16.7998 61.8901 16.7998 63.1099 17.5498 63.8599C17.9298 64.2399 18.4198 64.4199 18.9098 64.4199C19.3998 64.4199 19.8998 64.2299 20.2698 63.8599L24.3598 59.77C25.1098 59.02 25.1098 57.7998 24.3598 57.0498C23.6098 56.2998 22.3898 56.2998 21.6398 57.0498ZM38.7798 65.75V71.5298C38.7798 72.5998 39.6398 73.46 40.7098 73.46C41.7698 73.46 42.6398 72.5998 42.6398 71.5298V65.75C42.6398 64.68 41.7798 63.8198 40.7098 63.8198C39.6398 63.8198 38.7798 64.68 38.7798 65.75ZM63.8198 40.71C63.8198 41.77 64.6798 42.6401 65.7498 42.6401H71.5298C72.5998 42.6401 73.4598 41.78 73.4598 40.71C73.4598 39.65 72.5998 38.7798 71.5298 38.7798H65.7498C64.6798 38.7798 63.8198 39.64 63.8198 40.71ZM61.1298 17.5498L57.0398 21.6401C56.2898 22.3901 56.2898 23.6099 57.0398 24.3599C57.4198 24.7399 57.9098 24.9199 58.3998 24.9199C58.8898 24.9199 59.3898 24.7299 59.7598 24.3599L63.8498 20.27C64.5998 19.52 64.5998 18.2998 63.8498 17.5498C63.0998 16.7998 61.8798 16.7998 61.1298 17.5498ZM27.8698 14.75C28.1798 15.49 28.8898 15.9399 29.6498 15.9399C29.8898 15.9399 30.1498 15.89 30.3898 15.79C31.3698 15.38 31.8398 14.26 31.4298 13.27L30.6898 11.4902C30.2798 10.5102 29.1498 10.0402 28.1698 10.4502C27.1898 10.8602 26.7198 11.9802 27.1298 12.9702L27.8698 14.75ZM12.9698 27.1299C11.9898 26.7199 10.8598 27.1899 10.4498 28.1699C10.0398 29.1499 10.5098 30.2799 11.4898 30.6899L13.2698 31.4302C13.5098 31.5302 13.7598 31.5801 14.0098 31.5801C14.7698 31.5801 15.4798 31.1301 15.7898 30.3901C16.1998 29.4101 15.7298 28.2801 14.7498 27.8701L12.9698 27.1299ZM12.9698 54.2798L14.7498 53.54C15.7298 53.13 16.1998 52 15.7898 51.02C15.3798 50.04 14.2498 49.57 13.2698 49.98L11.4898 50.7202C10.5098 51.1302 10.0398 52.2602 10.4498 53.2402C10.7598 53.9802 11.4698 54.4302 12.2298 54.4302C12.4798 54.4302 12.7298 54.3798 12.9698 54.2798ZM28.1698 70.96C28.4098 71.06 28.6598 71.1099 28.9098 71.1099C29.6698 71.1099 30.3798 70.6599 30.6898 69.9199L31.4298 68.1401C31.8398 67.1601 31.3698 66.0301 30.3898 65.6201C29.4098 65.2101 28.2798 65.6802 27.8698 66.6602L27.1298 68.4399C26.7198 69.4199 27.1898 70.55 28.1698 70.96ZM49.9798 68.1401L50.7198 69.9199C51.0298 70.6599 51.7398 71.1099 52.4998 71.1099C52.7498 71.1099 52.9998 71.06 53.2398 70.96C54.2198 70.55 54.6898 69.4199 54.2798 68.4399L53.5398 66.6602C53.1298 65.6802 51.9998 65.2201 51.0198 65.6201C50.0398 66.0301 49.5698 67.1501 49.9798 68.1401ZM68.1298 49.98C67.1498 49.58 66.0198 50.04 65.6098 51.02C65.1998 52 65.6698 53.13 66.6498 53.54L68.4298 54.2798C68.6698 54.3798 68.9198 54.4302 69.1698 54.4302C69.9298 54.4302 70.6398 53.9802 70.9498 53.2402C71.3598 52.2602 70.8898 51.1302 69.9098 50.7202L68.1298 49.98ZM67.3998 31.5801C67.6498 31.5801 67.8998 31.5302 68.1398 31.4302L69.9198 30.6899C70.8998 30.2799 71.3698 29.1599 70.9598 28.1699C70.5498 27.1799 69.4198 26.7299 68.4398 27.1299L66.6598 27.8701C65.6798 28.2801 65.2098 29.4001 65.6198 30.3901C65.9198 31.1301 66.6398 31.5801 67.3998 31.5801ZM51.0198 15.79C51.2598 15.89 51.5098 15.9399 51.7598 15.9399C52.5198 15.9399 53.2298 15.49 53.5398 14.75L54.2798 12.9702C54.6898 11.9902 54.2198 10.8602 53.2398 10.4502C52.2598 10.0502 51.1298 10.5102 50.7198 11.4902L49.9798 13.27C49.5698 14.26 50.0398 15.39 51.0198 15.79ZM55.6798 58.4102L57.0398 59.77L61.1298 63.8599C61.5098 64.2399 61.9998 64.4199 62.4898 64.4199C62.9798 64.4199 63.4798 64.2299 63.8498 63.8599C64.5998 63.1099 64.5998 61.8901 63.8498 61.1401L59.7598 57.0498L58.3998 55.6899C57.6498 54.9399 56.4298 54.9399 55.6798 55.6899C54.9298 56.4399 54.9298 57.6602 55.6798 58.4102ZM30.6698 48.0098C29.9198 48.7598 29.9198 49.98 30.6698 50.73C31.0498 51.11 31.5398 51.29 32.0298 51.29C32.5198 51.29 33.0198 51.1 33.3898 50.73L39.7098 44.4102C40.0298 44.4902 40.3498 44.5498 40.6998 44.5498C42.8298 44.5498 44.5498 42.8302 44.5498 40.7002C44.5498 39.2802 43.7698 38.0499 42.6198 37.3799V25.29C42.6198 24.23 41.7598 23.3599 40.6898 23.3599C39.6298 23.3599 38.7598 24.22 38.7598 25.29V37.3799C37.6098 38.0499 36.8298 39.2802 36.8298 40.7002C36.8298 41.0402 36.8898 41.3699 36.9698 41.6899L30.6698 48.0098ZM40.6998 17.5898C41.7598 17.5898 42.6298 16.7302 42.6298 15.6602V9.87988C42.6298 8.81988 41.7698 7.9502 40.6998 7.9502C39.6398 7.9502 38.7698 8.80988 38.7698 9.87988V15.6602C38.7798 16.7302 39.6398 17.5898 40.6998 17.5898Z" fill="white"/>
</svg>
