<svg width="82" height="86" viewBox="0 0 82 86" fill="none" xmlns="http://www.w3.org/2000/svg">
<path d="M30.02 68.2498C34.72 68.2498 38.54 64.4298 38.54 59.7298V51.2097C38.54 46.5097 34.72 42.6897 30.02 42.6897C25.32 42.6897 21.5 46.5097 21.5 51.2097V59.7298C21.5 64.4298 25.32 68.2498 30.02 68.2498ZM25.76 51.22C25.76 48.87 27.67 46.9597 30.02 46.9597C32.37 46.9597 34.28 48.87 34.28 51.22V59.74C34.28 62.09 32.37 63.9998 30.02 63.9998C27.67 63.9998 25.76 62.09 25.76 59.74V51.22ZM42.79 40.5799V59.74C42.79 64.44 46.6101 68.2595 51.3101 68.2595C56.0101 68.2595 59.83 64.44 59.83 59.74V40.5799C59.83 35.8799 56.0101 32.0598 51.3101 32.0598C46.6101 32.0598 42.79 35.8799 42.79 40.5799ZM55.5699 40.5799V59.74C55.5699 62.09 53.6601 63.9998 51.3101 63.9998C48.9601 63.9998 47.05 62.09 47.05 59.74V40.5799C47.05 38.2299 48.9601 36.3196 51.3101 36.3196C53.6601 36.3196 55.5699 38.2299 55.5699 40.5799ZM72.6 21.4197C67.9 21.4197 64.08 25.2397 64.08 29.9397V59.7498C64.08 64.4498 67.9 68.2698 72.6 68.2698C77.3 68.2698 81.12 64.4498 81.12 59.7498V29.9397C81.11 25.2397 77.29 21.4197 72.6 21.4197ZM76.85 59.74C76.85 62.09 74.94 63.9998 72.59 63.9998C70.24 63.9998 68.33 62.09 68.33 59.74V29.93C68.33 27.58 70.24 25.6697 72.59 25.6697C74.94 25.6697 76.85 27.58 76.85 29.93V59.74ZM25.76 32.0598C25.76 29.7098 27.67 27.7996 30.02 27.7996C30.19 27.7996 30.35 27.8299 30.51 27.8499L41.09 13.7498C41.8 12.8098 43.1299 12.6196 44.0699 13.3196L49.64 17.49C50.15 17.27 50.7201 17.1497 51.3101 17.1497C51.5001 17.1497 51.69 17.1797 51.88 17.2097L64.53 0.939719C64.9 0.459719 65.47 0.159895 66.08 0.119895C66.72 0.089895 67.28 0.310012 67.72 0.740012L71.51 4.52956C71.86 4.43956 72.22 4.36989 72.6 4.36989C74.95 4.36989 76.86 6.27966 76.86 8.62966C76.86 10.9797 74.95 12.8899 72.6 12.8899C70.25 12.8899 68.34 10.9797 68.34 8.62966C68.34 8.24966 68.41 7.88982 68.5 7.53982L66.41 5.44997L55.25 19.7996C55.45 20.2996 55.5699 20.8297 55.5699 21.3997C55.5699 23.7497 53.6601 25.6599 51.3101 25.6599C48.9601 25.6599 47.05 23.7497 47.05 21.3997C47.05 21.2297 47.08 21.0697 47.1 20.8997L43.22 17.99L33.9301 30.3699C34.1501 30.8799 34.27 31.4498 34.27 32.0398C34.27 34.3898 32.36 36.2996 30.01 36.2996C27.67 36.3196 25.76 34.4098 25.76 32.0598ZM74.73 72.5095H17.25V10.7698C17.25 7.2498 14.38 4.37966 10.86 4.37966C7.33999 4.37966 4.46997 7.2498 4.46997 10.7698H2.33997C1.15997 10.7698 0.209961 11.7197 0.209961 12.8997C0.209961 14.0797 1.15997 15.0296 2.33997 15.0296H4.46997V21.4197H2.33997C1.15997 21.4197 0.209961 22.3696 0.209961 23.5496C0.209961 24.7296 1.15997 25.68 2.33997 25.68H4.46997V32.0696H2.33997C1.15997 32.0696 0.209961 33.02 0.209961 34.2C0.209961 35.38 1.15997 36.3299 2.33997 36.3299H4.46997V42.72H2.33997C1.15997 42.72 0.209961 43.6699 0.209961 44.8499C0.209961 46.0299 1.15997 46.9798 2.33997 46.9798H4.46997V53.3699H2.33997C1.15997 53.3699 0.209961 54.3198 0.209961 55.4998C0.209961 56.6798 1.15997 57.6297 2.33997 57.6297H4.46997V64.0198H2.33997C1.15997 64.0198 0.209961 64.9697 0.209961 66.1497C0.209961 67.3297 1.15997 68.2796 2.33997 68.2796H4.46997V78.9197C4.46997 82.4397 7.33999 85.3098 10.86 85.3098H74.73C78.25 85.3098 81.12 82.4397 81.12 78.9197C81.11 75.3797 78.25 72.5095 74.73 72.5095ZM74.73 81.0296H10.86C9.68999 81.0296 8.72998 80.0797 8.72998 78.8997V10.7698C8.72998 9.5998 9.68999 8.63991 10.86 8.63991C12.03 8.63991 12.99 9.5998 12.99 10.7698V74.6399C12.99 75.8199 13.94 76.7698 15.12 76.7698H74.73C75.91 76.7698 76.86 77.7197 76.86 78.8997C76.86 80.0797 75.9 81.0296 74.73 81.0296Z" fill="white"/>
</svg>
