<svg width="82" height="80" viewBox="0 0 82 80" fill="none" xmlns="http://www.w3.org/2000/svg">
<path d="M75.5802 58.7598C75.7802 58.2298 75.9103 57.6498 75.9103 57.0498C75.9103 54.3898 73.7502 52.23 71.0902 52.23H63.2202L64.1902 51.2598C66.2602 49.1898 66.2602 45.8298 64.1902 43.7598C62.5902 42.1598 60.1502 41.7502 58.1202 42.7402L47.7703 47.79C46.9803 48.18 46.1102 48.3799 45.2402 48.3799H41.2402H37.3903C36.3303 48.3799 35.4602 49.2401 35.4602 50.3101C35.4602 51.3701 36.3203 52.2402 37.3903 52.2402H39.3202V71.5H31.6202C30.5602 71.5 29.6902 72.3602 29.6902 73.4302C29.6902 74.5002 30.5502 75.3599 31.6202 75.3599H41.2502C41.8502 75.3599 42.3702 75.0701 42.7202 74.6401L47.1403 77.29C49.2403 78.55 51.6402 79.21 54.0802 79.21H69.1803C71.8403 79.21 74.0002 77.0501 74.0002 74.3901C74.0002 74.0301 73.9502 73.6798 73.8802 73.3398C76.1403 72.9398 77.8602 70.9799 77.8602 68.6099C77.8602 67.5199 77.4802 66.5302 76.8702 65.7202C77.4802 64.9102 77.8602 63.9201 77.8602 62.8301C77.8302 61.1101 76.9302 59.6098 75.5802 58.7598ZM73.0203 69.5601H69.1703H64.3502H62.4203C61.3503 69.5601 60.4902 70.4202 60.4902 71.4902C60.4902 72.5502 61.3503 73.4199 62.4203 73.4199H64.3502H69.1703C69.7003 73.4199 70.1302 73.8499 70.1302 74.3799C70.1302 74.9099 69.7003 75.3398 69.1703 75.3398H54.0702C52.3302 75.3398 50.6102 74.8702 49.1202 73.9702L43.1703 70.3999V52.23H45.2402C46.6902 52.23 48.1502 51.8898 49.4602 51.2598L59.8103 46.21C60.3703 45.93 61.0302 46.0502 61.4702 46.4902C61.7502 46.7702 61.9003 47.1298 61.9003 47.5098C61.9003 47.8998 61.7502 48.2598 61.4702 48.5298L57.2102 52.79C57.0302 52.97 56.8903 53.1799 56.7903 53.4199C56.6003 53.8899 56.6003 54.4201 56.7903 54.8901C56.9803 55.3601 57.3602 55.7402 57.8302 55.9302C58.0702 56.0302 58.3202 56.0801 58.5702 56.0801H71.0902C71.6202 56.0801 72.0503 56.51 72.0503 57.04C72.0503 57.57 71.6202 58 71.0902 58H64.3502H62.4203C61.3503 58 60.4902 58.8602 60.4902 59.9302C60.4902 60.9902 61.3503 61.8599 62.4203 61.8599H64.3502H71.0902H73.0203C73.5503 61.8599 73.9802 62.2898 73.9802 62.8198C73.9802 63.3498 73.5503 63.7798 73.0203 63.7798H64.3502C63.2802 63.7798 62.4203 64.64 62.4203 65.71C62.4203 66.78 63.2802 67.6401 64.3502 67.6401H73.0203C73.5503 67.6401 73.9802 68.0701 73.9802 68.6001C73.9802 69.1301 73.5503 69.5601 73.0203 69.5601ZM32.4702 67.1099C33.8902 67.1099 35.2202 66.5601 36.2202 65.5601C37.8202 63.9601 38.2302 61.5202 37.2402 59.4902L32.1902 49.1299C31.8102 48.3499 31.6102 47.4701 31.6102 46.6001V42.6001V38.75C31.6102 37.69 30.7503 36.8198 29.6803 36.8198C28.6103 36.8198 27.7502 37.68 27.7502 38.75V40.6802H8.49023V32.98C8.49023 31.92 7.63024 31.0498 6.56024 31.0498C5.49024 31.0498 4.63025 31.91 4.63025 32.98V42.6099C4.63025 43.2099 4.92022 43.7301 5.35022 44.0801L2.70026 48.5C1.44026 50.6 0.780273 52.9999 0.780273 55.4399V70.54C0.780273 73.2 2.94022 75.3599 5.60022 75.3599C5.96022 75.3599 6.31027 75.3102 6.65027 75.2402C7.05027 77.5002 9.01025 79.2202 11.3802 79.2202C12.4702 79.2202 13.4603 78.84 14.2703 78.23C15.0803 78.84 16.0702 79.2202 17.1602 79.2202C18.8702 79.2202 20.3702 78.31 21.2202 76.96C21.7502 77.16 22.3302 77.29 22.9302 77.29C25.5802 77.29 27.7502 75.1302 27.7502 72.4702V64.6001L28.7202 65.5698C29.7302 66.5498 31.0602 67.1099 32.4702 67.1099ZM23.9003 72.4502C23.9003 72.9802 23.4702 73.4102 22.9402 73.4102C22.4102 73.4102 21.9802 72.9802 21.9802 72.4502V65.71V63.7798C21.9802 62.7198 21.1202 61.8501 20.0502 61.8501C18.9802 61.8501 18.1202 62.7098 18.1202 63.7798V65.71V72.4502V74.3799C18.1202 74.9099 17.6902 75.3398 17.1602 75.3398C16.6302 75.3398 16.2003 74.9099 16.2003 74.3799V65.71C16.2003 64.65 15.3403 63.7798 14.2703 63.7798C13.2003 63.7798 12.3403 64.64 12.3403 65.71V74.3799C12.3403 74.9099 11.9102 75.3398 11.3802 75.3398C10.8502 75.3398 10.4202 74.9099 10.4202 74.3799V70.5298V65.71V63.7798C10.4202 62.7198 9.56023 61.8501 8.49023 61.8501C7.43023 61.8501 6.56024 62.7098 6.56024 63.7798V65.71V70.5298C6.56024 71.0598 6.13022 71.4902 5.60022 71.4902C5.07022 71.4902 4.64026 71.0598 4.64026 70.5298V55.4302C4.64026 53.6802 5.12025 51.97 6.01025 50.48L9.58026 44.5298H27.7502V46.6001C27.7502 48.0501 28.0902 49.5098 28.7202 50.8198L33.7703 61.1802C34.0403 61.7302 33.9302 62.4001 33.4902 62.8301C32.9402 63.3801 31.9902 63.3801 31.4402 62.8301L27.1803 58.5698C27.0003 58.3898 26.7903 58.2499 26.5503 58.1499C26.0803 57.9599 25.5502 57.9599 25.0802 58.1499C24.6102 58.3399 24.2303 58.7199 24.0403 59.1899C23.9503 59.4299 23.8903 59.6802 23.8903 59.9302V72.4502H23.9003ZM4.97021 22.5801C4.77021 23.1201 4.64026 23.6898 4.64026 24.2998C4.64026 26.9498 6.80027 29.1201 9.46027 29.1201H17.3303L16.3602 30.0898C15.3602 31.0898 14.8102 32.4198 14.8102 33.8398C14.8102 35.2598 15.3602 36.5898 16.3602 37.5898C17.3802 38.6098 18.7302 39.1401 20.1102 39.1401C20.9002 39.1401 21.6902 38.9601 22.4302 38.6001L32.7903 33.5498C33.5703 33.1698 34.4502 32.9702 35.3202 32.9702H39.3202H43.1703C44.2403 32.9702 45.1002 32.11 45.1002 31.04C45.1002 29.98 44.2403 29.1099 43.1703 29.1099H41.2402V9.8501H48.9402C50.0102 9.8501 50.8702 8.98992 50.8702 7.91992C50.8702 6.85992 50.0102 5.99023 48.9402 5.99023H39.3103C38.7103 5.99023 38.1902 6.27996 37.8402 6.70996L33.4203 4.06006C31.3203 2.80006 28.9202 2.14014 26.4802 2.14014H11.3802C8.73025 2.14014 6.56024 4.29996 6.56024 6.95996C6.56024 7.31996 6.61024 7.66977 6.68024 8.00977C4.42024 8.40977 2.70026 10.3702 2.70026 12.7402C2.70026 13.8302 3.08025 14.8199 3.69025 15.6299C3.08025 16.4399 2.70026 17.43 2.70026 18.52C2.71026 20.23 3.62021 21.7301 4.97021 22.5801ZM7.53027 11.7798H11.3802H16.2003H18.1302C19.1902 11.7798 20.0602 10.9201 20.0602 9.8501C20.0602 8.7901 19.2002 7.91992 18.1302 7.91992H16.2003H11.3802C10.8502 7.91992 10.4202 7.48996 10.4202 6.95996C10.4202 6.42996 10.8502 6 11.3802 6H26.4802C28.2302 6 29.9402 6.48012 31.4402 7.37012L37.3903 10.9399V29.1099H35.3202C33.8702 29.1099 32.4102 29.4501 31.1002 30.0801L20.7402 35.1299C20.1902 35.3999 19.5203 35.2901 19.0803 34.8501C18.8103 34.5801 18.6602 34.2101 18.6602 33.8301C18.6602 33.4501 18.8103 33.0801 19.0803 32.8101L23.3403 28.5498C23.5203 28.3698 23.6603 28.1599 23.7603 27.9199C23.9503 27.4499 23.9503 26.9202 23.7603 26.4502C23.5703 25.9802 23.1902 25.6002 22.7202 25.4102C22.4902 25.3102 22.2302 25.2598 21.9802 25.2598H9.46027C8.93027 25.2598 8.50024 24.8298 8.50024 24.2998C8.50024 23.7698 8.93027 23.3398 9.46027 23.3398H16.2003H18.1302C19.1902 23.3398 20.0602 22.4802 20.0602 21.4102C20.0602 20.3502 19.2002 19.48 18.1302 19.48H16.2003H9.46027H7.53027C7.00027 19.48 6.57025 19.05 6.57025 18.52C6.57025 17.99 7.00027 17.5601 7.53027 17.5601H16.2003C17.2603 17.5601 18.1302 16.6999 18.1302 15.6299C18.1302 14.5699 17.2703 13.7002 16.2003 13.7002H7.53027C7.00027 13.7002 6.57025 13.2702 6.57025 12.7402C6.57025 12.2102 7.00027 11.7798 7.53027 11.7798ZM76.8702 4.06982C76.5102 4.06982 76.1602 4.11994 75.8202 4.18994C75.4202 1.92994 73.4602 0.209961 71.0902 0.209961C70.0002 0.209961 69.0102 0.590195 68.2002 1.2002C67.3902 0.590195 66.4003 0.209961 65.3103 0.209961C63.6003 0.209961 62.1002 1.12021 61.2502 2.47021C60.7202 2.27021 60.1403 2.14014 59.5403 2.14014C56.8803 2.14014 54.7202 4.29996 54.7202 6.95996V14.8301L53.7502 13.8599C51.6902 11.7999 48.3202 11.7999 46.2502 13.8599C44.6502 15.4599 44.2402 17.9002 45.2302 19.9302L50.2803 30.2798C50.6703 31.0698 50.8702 31.9401 50.8702 32.8101V36.8101V40.6602C50.8702 41.7202 51.7303 42.5898 52.8003 42.5898C53.8703 42.5898 54.7302 41.7302 54.7302 40.6602V38.73H73.9902V46.4302C73.9902 47.5002 74.8503 48.3599 75.9203 48.3599C76.9903 48.3599 77.8502 47.5002 77.8502 46.4302V36.7998C77.8502 36.1998 77.5602 35.6801 77.1302 35.3301L79.7803 30.9102C81.0403 28.8102 81.7002 26.4102 81.7002 23.9702V8.87012C81.6902 6.23012 79.5302 4.06982 76.8702 4.06982ZM77.8302 23.9902C77.8302 25.7402 77.3602 27.4502 76.4602 28.9502L72.8903 34.8999H54.7202V32.8301C54.7202 31.3801 54.3802 29.9199 53.7502 28.6099L48.7002 18.2598C48.4302 17.7098 48.5402 17.0401 48.9802 16.6001C49.5402 16.0401 50.4603 16.0301 51.0303 16.6001L55.2903 20.8599C55.4703 21.0399 55.6803 21.1798 55.9203 21.2798C56.3903 21.4698 56.9203 21.4698 57.3903 21.2798C57.8603 21.0898 58.2403 20.7102 58.4303 20.2402C58.5303 20.0002 58.5802 19.75 58.5802 19.5V6.97998C58.5802 6.44998 59.0103 6.02002 59.5403 6.02002C60.0703 6.02002 60.5002 6.44998 60.5002 6.97998V13.7202V15.6499C60.5002 16.7099 61.3603 17.5801 62.4303 17.5801C63.5003 17.5801 64.3602 16.7199 64.3602 15.6499V13.7202V6.97998V5.0498C64.3602 4.5198 64.7902 4.08984 65.3202 4.08984C65.8502 4.08984 66.2803 4.5198 66.2803 5.0498V13.7202C66.2803 14.7802 67.1402 15.6499 68.2102 15.6499C69.2802 15.6499 70.1403 14.7902 70.1403 13.7202V5.0498C70.1403 4.5198 70.5702 4.08984 71.1002 4.08984C71.6302 4.08984 72.0603 4.5198 72.0603 5.0498V8.8999V13.7202V15.6499C72.0603 16.7099 72.9202 17.5801 73.9902 17.5801C75.0602 17.5801 75.9203 16.7199 75.9203 15.6499V13.7202V8.8999C75.9203 8.3699 76.3503 7.93994 76.8802 7.93994C77.4102 7.93994 77.8402 8.3699 77.8402 8.8999V23.9902H77.8302Z" fill="white"/>
</svg>
