<svg width="127" height="170" viewBox="0 0 127 170" fill="none" xmlns="http://www.w3.org/2000/svg">
<path d="M56.4364 56.6045C80.676 32.3649 97.5623 9.95102 94.153 6.54177C90.7438 3.13253 68.33 20.0189 44.0904 44.2585C19.8508 68.4981 2.96441 90.9119 6.37365 94.3212C9.7829 97.7304 32.1968 80.8441 56.4364 56.6045Z" fill="#6800DE"/>
<path d="M82.8666 125.592C107.106 101.352 123.993 78.9382 120.583 75.5289C117.174 72.1197 94.7602 89.006 70.5206 113.246C46.2809 137.485 29.3947 159.899 32.8039 163.308C36.2132 166.718 58.627 149.831 82.8666 125.592Z" fill="#6800DE"/>
<path d="M63.4799 103.28C73.6143 103.28 81.8299 95.0646 81.8299 84.9302C81.8299 74.7958 73.6143 66.5801 63.4799 66.5801C53.3455 66.5801 45.1299 74.7958 45.1299 84.9302C45.1299 95.0646 53.3455 103.28 63.4799 103.28Z" fill="white"/>
</svg>
