<svg width="308" height="192" viewBox="0 0 308 192" fill="none" xmlns="http://www.w3.org/2000/svg">
<path d="M160.211 97.485C160.211 116.183 156.705 132.862 149.694 147.523C142.894 161.972 133.439 173.339 121.328 181.626C109.217 189.912 95.5121 194.056 80.2138 194.056C64.9154 194.056 51.2107 189.912 39.0995 181.626C27.2008 173.339 17.7456 161.972 10.7339 147.523C3.72219 132.862 0.216328 116.183 0.216328 97.485C0.216328 78.787 3.72219 62.2139 10.7339 47.7654C17.7456 33.1046 27.2008 21.6308 39.0995 13.3442C51.2107 4.84519 64.9154 0.595664 80.2138 0.595664C95.5121 0.595664 109.217 4.84519 121.328 13.3442C133.439 21.6308 142.894 33.1046 149.694 47.7654C156.705 62.2139 160.211 78.787 160.211 97.485ZM138.22 97.485C138.22 82.3991 135.776 69.1193 130.889 57.6456C126.002 46.1719 119.203 37.2479 110.492 30.8736C101.78 24.2868 91.6875 20.9934 80.2138 20.9934C68.74 20.9934 58.6474 24.2868 49.9358 30.8736C41.2243 37.2479 34.3188 46.1719 29.2194 57.6456C24.3324 69.1193 21.8889 82.3991 21.8889 97.485C21.8889 112.571 24.3324 125.851 29.2194 137.324C34.3188 148.798 41.2243 157.722 49.9358 164.096C58.6474 170.471 68.74 173.658 80.2138 173.658C91.6875 173.658 101.78 170.471 110.492 164.096C119.203 157.51 126.002 148.586 130.889 137.324C135.776 125.851 138.22 112.571 138.22 97.485ZM307.236 171.108V190.868H199.191V171.108H244.449V34.6981C242.749 37.2479 239.881 40.0101 235.844 42.9847C231.807 45.9594 227.132 48.7216 221.82 51.2713C216.721 53.821 211.621 55.9458 206.522 57.6456C201.422 59.3454 196.748 60.1953 192.498 60.1953V39.1602C197.385 39.1602 202.697 37.7791 208.434 35.0169C214.171 32.2547 219.695 29.0675 225.007 25.4554C230.319 21.8433 234.781 18.4437 238.393 15.2565C242.006 12.0694 244.024 9.94462 244.449 8.88224H266.759V171.108H307.236Z" fill="white"/>
</svg>
