<svg width="328" height="192" viewBox="0 0 328 192" fill="none" xmlns="http://www.w3.org/2000/svg">
<path d="M160.116 96.7921C160.116 115.429 156.622 132.053 149.633 146.666C142.856 161.067 133.432 172.397 121.36 180.657C109.289 188.916 95.6294 193.046 80.3813 193.046C65.1332 193.046 51.4735 188.916 39.4021 180.657C27.5425 172.397 18.1183 161.067 11.1296 146.666C4.14091 132.053 0.646557 115.429 0.646557 96.7921C0.646557 78.1556 4.14091 61.6368 11.1296 47.2359C18.1183 32.6231 27.5425 21.1871 39.4021 12.9277C51.4735 4.45654 65.1332 0.220972 80.3813 0.220972C95.6294 0.220972 109.289 4.45654 121.36 12.9277C133.432 21.1871 142.856 32.6231 149.633 47.2359C156.622 61.6368 160.116 78.1556 160.116 96.7921ZM138.197 96.7921C138.197 81.7558 135.761 68.5196 130.891 57.0836C126.02 45.6475 119.243 36.7528 110.56 30.3994C101.877 23.8343 91.8173 20.5517 80.3813 20.5517C68.9452 20.5517 58.8857 23.8343 50.2028 30.3994C41.5199 36.7528 34.6371 45.6475 29.5544 57.0836C24.6835 68.5196 22.248 81.7558 22.248 96.7921C22.248 111.828 24.6835 125.065 29.5544 136.501C34.6371 147.937 41.5199 156.831 50.2028 163.185C58.8857 169.538 68.9452 172.715 80.3813 172.715C91.8173 172.715 101.877 169.538 110.56 163.185C119.243 156.62 126.02 147.725 130.891 136.501C135.761 125.065 138.197 111.828 138.197 96.7921ZM191.662 189.869C191.662 182.668 192.297 175.468 193.568 168.267C194.839 160.855 197.274 153.549 200.874 146.348C204.475 139.148 209.769 132.265 216.758 125.7C223.746 118.923 232.959 112.57 244.395 106.64C250.536 103.463 256.89 100.392 263.455 97.4274C270.02 94.2508 276.162 90.8623 281.88 87.2621C287.81 83.45 292.469 79.2145 295.857 74.5553C299.457 69.6844 301.257 63.9664 301.257 57.4012C301.257 52.1068 299.669 46.9182 296.492 41.8355C293.528 36.7528 288.868 32.6231 282.515 29.4465C276.373 26.2698 268.644 24.6814 259.325 24.6814C252.548 24.6814 246.407 25.6344 240.901 27.5404C235.394 29.4464 230.523 31.8819 226.288 34.8468C222.052 37.5999 218.452 40.4589 215.487 43.4238C212.522 46.177 210.087 48.5065 208.181 50.4125L194.521 35.4821C195.58 34.2115 197.909 31.9878 201.51 28.8111C205.322 25.4226 210.087 21.9283 215.805 18.3281C221.735 14.7278 228.617 11.657 236.453 9.11568C244.501 6.57433 253.29 5.30366 262.82 5.30366C275.738 5.30366 286.751 7.63322 295.857 12.2924C305.175 16.7397 312.27 22.7754 317.141 30.3994C322.012 38.0235 324.447 46.2829 324.447 55.1776C324.447 63.8605 322.541 71.3786 318.729 77.732C315.129 83.8736 310.364 89.274 304.434 93.9331C298.716 98.3804 292.68 102.298 286.327 105.687C280.185 108.864 274.573 111.617 269.491 113.946C259.537 118.605 251.172 123.264 244.395 127.924C237.618 132.583 232.218 137.348 228.194 142.219C224.17 146.878 220.993 151.537 218.664 156.196C216.546 160.643 215.064 165.303 214.216 170.173H327.942V189.869H191.662Z" fill="white"/>
</svg>
