<svg width="334" height="200" viewBox="0 0 334 200" fill="none" xmlns="http://www.w3.org/2000/svg">
<path d="M160.211 97.7193C160.211 116.417 156.705 133.097 149.694 147.758C142.894 162.206 133.439 173.573 121.328 181.86C109.217 190.147 95.5121 194.29 80.2138 194.29C64.9154 194.29 51.2107 190.147 39.0995 181.86C27.2008 173.573 17.7456 162.206 10.7339 147.758C3.72219 133.097 0.216328 116.417 0.216328 97.7193C0.216328 79.0214 3.72219 62.4482 10.7339 47.9998C17.7456 33.3389 27.2008 21.8652 39.0995 13.5786C51.2107 5.07957 64.9154 0.830039 80.2138 0.830039C95.5121 0.830039 109.217 5.07957 121.328 13.5786C133.439 21.8652 142.894 33.3389 149.694 47.9998C156.705 62.4482 160.211 79.0214 160.211 97.7193ZM138.22 97.7193C138.22 82.6335 135.776 69.3537 130.889 57.88C126.002 46.4062 119.203 37.4822 110.492 31.1079C101.78 24.5212 91.6875 21.2278 80.2138 21.2278C68.74 21.2278 58.6474 24.5212 49.9358 31.1079C41.2243 37.4822 34.3188 46.4062 29.2194 57.88C24.3324 69.3537 21.8889 82.6335 21.8889 97.7193C21.8889 112.805 24.3324 126.085 29.2194 137.559C34.3188 149.032 41.2243 157.956 49.9358 164.331C58.6474 170.705 68.74 173.892 80.2138 173.892C91.6875 173.892 101.78 170.705 110.492 164.331C119.203 157.744 126.002 148.82 130.889 137.559C135.776 126.085 138.22 112.805 138.22 97.7193ZM287.157 115.886C296.718 117.373 304.899 120.773 311.698 126.085C318.497 131.397 323.809 138.09 327.634 146.164C331.458 154.238 333.37 163.375 333.37 173.573C333.37 186.322 330.29 197.583 324.128 207.357C317.966 217.131 309.361 224.674 298.312 229.986C287.263 235.298 274.408 237.954 259.747 237.954C243.599 237.954 229.469 234.66 217.358 228.074C205.247 221.699 196.111 212.775 189.949 201.302L204.928 187.597C209.603 196.733 216.508 204.064 225.645 209.588C234.781 215.325 246.149 218.194 259.747 218.194C275.471 218.194 287.9 214.263 297.037 206.401C306.386 198.752 311.06 187.703 311.06 173.255C311.06 158.806 306.173 147.333 296.399 138.834C286.838 130.122 273.133 125.766 255.285 125.766H247.317V107.281H255.923C272.283 107.281 284.82 103.456 293.531 95.807C302.243 88.1579 306.598 78.384 306.598 66.4853C306.598 57.7737 304.58 50.5495 300.543 44.8127C296.506 39.0758 290.981 34.72 283.97 31.7454C277.17 28.7707 269.309 27.2834 260.385 27.2834C248.274 27.2834 237.543 30.0456 228.195 35.5699C219.058 40.8819 212.153 48.3185 207.478 57.88L193.455 44.494C197.067 37.0573 202.272 30.5767 209.072 25.0524C215.871 19.528 223.839 15.2784 232.975 12.3038C242.112 9.11661 251.886 7.52304 262.297 7.52304C275.471 7.52304 287.051 9.96652 297.037 14.8535C307.023 19.528 314.885 26.1147 320.622 34.6138C326.359 43.1129 329.227 53.0993 329.227 64.573C329.227 73.0721 327.527 80.9337 324.128 88.1579C320.728 95.3821 315.841 101.438 309.467 106.325C303.305 111.212 295.868 114.399 287.157 115.886Z" fill="white"/>
</svg>
