<svg width="341" height="200" viewBox="0 0 341 200" fill="none" xmlns="http://www.w3.org/2000/svg">
<path d="M160.116 97.026C160.116 115.663 156.622 132.287 149.633 146.9C142.856 161.301 133.432 172.631 121.36 180.89C109.289 189.15 95.6294 193.279 80.3813 193.279C65.1332 193.279 51.4735 189.15 39.4021 180.89C27.5425 172.631 18.1183 161.301 11.1296 146.9C4.14091 132.287 0.646557 115.663 0.646557 97.026C0.646557 78.3895 4.14091 61.8707 11.1296 47.4697C18.1183 32.857 27.5425 21.421 39.4021 13.1616C51.4735 4.69043 65.1332 0.454859 80.3813 0.454859C95.6294 0.454859 109.289 4.69043 121.36 13.1616C133.432 21.421 142.856 32.857 149.633 47.4697C156.622 61.8707 160.116 78.3895 160.116 97.026ZM138.197 97.026C138.197 81.9897 135.761 68.7535 130.891 57.3175C126.02 45.8814 119.243 36.9867 110.56 30.6333C101.877 24.0682 91.8173 20.7856 80.3813 20.7856C68.9452 20.7856 58.8857 24.0682 50.2028 30.6333C41.5199 36.9867 34.6371 45.8814 29.5544 57.3175C24.6835 68.7535 22.248 81.9897 22.248 97.026C22.248 112.062 24.6835 125.298 29.5544 136.735C34.6371 148.171 41.5199 157.065 50.2028 163.419C58.8857 169.772 68.9452 172.949 80.3813 172.949C91.8173 172.949 101.877 169.772 110.56 163.419C119.243 156.854 126.02 147.959 130.891 136.735C135.761 125.298 138.197 112.062 138.197 97.026ZM290.774 230.447V173.902H184.991V154.842L297.763 8.71422H312.376V154.206H340.331V173.902H312.376V230.447H290.774ZM207.863 154.206H292.998V42.7047L207.863 154.206Z" fill="white"/>
</svg>
