<svg width="333" height="57" viewBox="0 0 333 57" fill="none" xmlns="http://www.w3.org/2000/svg">
<path d="M0.219981 15.7001C-1.62002 33.2101 72.67 45.7401 164.35 52.8101C256.03 59.8701 330.41 58.5301 332.22 41.2701C333.94 24.8501 259.77 11.2301 168.09 4.16006C76.41 -2.89994 2.02998 -1.6099 0.219981 15.7001Z" fill="#6800DE"/>
<path d="M17.3528 21.5886L21.2687 8.22646L32.0013 9.05312L28.0854 22.4152L25.9236 22.2487L29.311 10.7511L22.8829 10.256L19.5146 21.7551L17.3528 21.5886ZM37.3332 23.2237C36.3511 23.1481 35.4986 22.89 34.7755 22.4494C34.0525 22.0088 33.4673 21.4441 33.02 20.7554C32.5865 20.0548 32.2991 19.2886 32.1579 18.4566C32.0304 17.6128 32.0575 16.7617 32.2391 15.9033C32.4364 15.0076 32.7896 14.1688 33.2989 13.3869C33.8092 12.5923 34.4332 11.9026 35.171 11.318C35.9099 10.7205 36.7272 10.2703 37.6229 9.96724C38.5197 9.65142 39.4463 9.53034 40.4029 9.60402C41.3977 9.68065 42.2503 9.93876 42.9605 10.3784C43.6835 10.8189 44.2618 11.3895 44.6954 12.09C45.1417 12.7916 45.4286 13.5642 45.5561 14.408C45.6845 15.239 45.658 16.0837 45.4764 16.9421C45.2771 17.8633 44.9224 18.7213 44.4121 19.5159C43.9156 20.2988 43.2984 20.9825 42.5606 21.5672C41.8228 22.1518 41.006 22.5957 40.1102 22.8988C39.2282 23.1901 38.3025 23.2984 37.3332 23.2237ZM37.7881 21.3151C38.5023 21.3701 39.1572 21.2794 39.7528 21.043C40.3611 20.8076 40.9066 20.4711 41.3893 20.0336C41.8858 19.5843 42.2969 19.0771 42.6227 18.5121C42.9495 17.9342 43.1742 17.3486 43.2969 16.755C43.451 16.0869 43.4869 15.4546 43.4045 14.8581C43.3222 14.2616 43.1329 13.721 42.8366 13.2363C42.5531 12.7526 42.1661 12.3635 41.6756 12.0691C41.1861 11.762 40.6033 11.5824 39.9274 11.5303C39.2386 11.4773 38.5838 11.568 37.9627 11.8024C37.3544 12.0378 36.8089 12.3743 36.3261 12.8118C35.8434 13.2493 35.4391 13.7506 35.1134 14.3157C34.7876 14.8808 34.5565 15.466 34.42 16.0713C34.2816 16.7021 34.2467 17.3217 34.3154 17.9299C34.3967 18.5392 34.5787 19.0921 34.8612 19.5885C35.1574 20.0732 35.5439 20.4686 36.0207 20.7748C36.5102 21.0819 37.0994 21.262 37.7881 21.3151ZM44.5176 26.2982L45.8013 21.8745L46.5474 21.932C47.034 21.9438 47.5025 21.6912 47.9529 21.1742C48.4033 20.6573 48.8655 19.8204 49.3394 18.6638C49.8144 17.4944 50.3296 15.9688 50.8851 14.0871L51.9053 10.5862L60.7822 11.2699L57.4139 22.769L59.1548 22.9031L57.852 27.3252L55.958 27.1793L56.6941 24.6188L47.1476 23.8835L46.4116 26.444L44.5176 26.2982ZM49.264 22.1412L55.2712 22.6039L58.0918 12.9679L53.4047 12.6069L52.7246 14.9409C52.3065 16.3713 51.9061 17.5721 51.5234 18.5433C51.1534 19.5155 50.7859 20.2891 50.4209 20.864C50.0558 21.4389 49.6702 21.8646 49.264 22.1412ZM60.7716 24.9328L64.7066 11.5722L74.2339 12.306L73.7069 14.1514L66.3223 13.5826L65.2255 17.3278L69.1665 17.6314C70.1613 17.708 70.9526 17.9293 71.5402 18.2953C72.1406 18.6623 72.5394 19.1485 72.7365 19.7538C72.9346 20.3464 72.94 21.0268 72.7525 21.795C72.5778 22.5642 72.2564 23.2386 71.7884 23.8184C71.3213 24.3854 70.7233 24.8205 69.9943 25.1236C69.2663 25.4139 68.4113 25.5213 67.4292 25.4456L60.7716 24.9328ZM63.4781 23.2745L67.553 23.5884C68.1525 23.6346 68.6582 23.5645 69.0703 23.3781C69.4824 23.1918 69.8101 22.9347 70.0534 22.6071C70.2978 22.2667 70.466 21.914 70.5583 21.549C70.6496 21.1968 70.6629 20.8579 70.5981 20.5321C70.5344 20.1936 70.3441 19.916 70.0272 19.6991C69.7104 19.4823 69.2267 19.3488 68.5762 19.2987L64.7309 19.0025L63.4781 23.2745ZM79.8552 26.4989C78.8731 26.4233 78.0205 26.1652 77.2975 25.7246C76.5745 25.284 75.9893 24.7193 75.542 24.0306C75.1085 23.33 74.8211 22.5637 74.6799 21.7318C74.5524 20.888 74.5795 20.0369 74.7611 19.1785C74.9584 18.2828 75.3116 17.444 75.8209 16.6621C76.3311 15.8674 76.9552 15.1778 77.693 14.5931C78.4319 13.9957 79.2491 13.5455 80.1449 13.2424C81.0417 12.9266 81.9683 12.8055 82.9249 12.8792C83.9197 12.9558 84.7722 13.2139 85.4825 13.6535C86.2055 14.0941 86.7838 14.6647 87.2174 15.3652C87.6637 16.0668 87.9506 16.8394 88.0781 17.6832C88.2065 18.5141 88.1799 19.3589 87.9984 20.2173C87.7991 21.1385 87.4444 21.9965 86.9341 22.7911C86.4376 23.574 85.8204 24.2577 85.0826 24.8424C84.3447 25.427 83.5279 25.8709 82.6322 26.174C81.7501 26.4653 80.8245 26.5736 79.8552 26.4989ZM80.3101 24.5902C81.0243 24.6453 81.6792 24.5546 82.2747 24.3182C82.883 24.0828 83.4286 23.7463 83.9113 23.3088C84.4078 22.8595 84.8189 22.3523 85.1447 21.7873C85.4715 21.2094 85.6962 20.6237 85.8189 20.0302C85.973 19.3621 86.0089 18.7298 85.9265 18.1333C85.8441 17.5367 85.6548 16.9961 85.3586 16.5115C85.0751 16.0277 84.6881 15.6387 84.1976 15.3443C83.7081 15.0372 83.1253 14.8576 82.4493 14.8055C81.7606 14.7525 81.1057 14.8432 80.4847 15.0776C79.8764 15.313 79.3309 15.6495 78.8481 16.087C78.3654 16.5245 77.9611 17.0258 77.6353 17.5909C77.3096 18.1559 77.0785 18.7411 76.942 19.3465C76.8036 19.9773 76.7687 20.5968 76.8374 21.2051C76.9187 21.8144 77.1007 22.3673 77.3832 22.8637C77.6794 23.3484 78.0659 23.7438 78.5427 24.05C79.0322 24.3571 79.6214 24.5372 80.3101 24.5902ZM92.189 13.689L97.6222 14.1075C98.2854 14.1586 98.8392 14.3808 99.2836 14.7743C99.7417 15.156 100.077 15.6372 100.289 16.2181C100.5 16.7989 100.582 17.4018 100.534 18.0267C100.486 18.6517 100.304 19.2599 99.9895 19.8515C99.6873 20.4441 99.2869 20.9777 98.7885 21.4525C98.291 21.9146 97.7308 22.2756 97.1078 22.5355C96.4857 22.7827 95.8303 22.8797 95.1416 22.8267L91.7745 22.5673L90.4157 27.2161L88.2539 27.0496L92.189 13.689ZM95.5745 20.9548C95.8933 20.9794 96.2122 20.9205 96.5311 20.7783C96.8509 20.6233 97.1364 20.4144 97.3876 20.1515C97.6398 19.8758 97.8439 19.558 97.9999 19.1979C98.1687 18.8388 98.2693 18.4489 98.3017 18.028C98.3322 17.6326 98.288 17.2892 98.1694 16.9978C98.0644 16.6947 97.9035 16.4513 97.6867 16.2678C97.4699 16.0844 97.2149 15.9813 96.9215 15.9587L93.8031 15.7185L92.3222 20.7043L95.5745 20.9548ZM99.1035 29.752L100.116 27.8478L99.4466 27.7962L100.105 25.4991L101.979 25.6435L101.321 27.9406L100.079 29.8272L99.1035 29.752ZM108.543 28.6124L112.459 15.2503L123.192 16.0769L119.276 29.439L117.114 29.2725L120.502 17.7749L114.073 17.2798L110.705 28.7789L108.543 28.6124ZM128.524 30.2475C127.542 30.1719 126.689 29.9138 125.966 29.4732C125.243 29.0326 124.658 28.4679 124.211 27.7792C123.777 27.0786 123.49 26.3124 123.348 25.4804C123.221 24.6366 123.248 23.7855 123.43 22.9271C123.627 22.0314 123.98 21.1926 124.49 20.4107C125 19.6161 125.624 18.9264 126.362 18.3418C127.1 17.7444 127.918 17.2941 128.814 16.991C129.71 16.6752 130.637 16.5542 131.594 16.6278C132.588 16.7045 133.441 16.9626 134.151 17.4022C134.874 17.8427 135.452 18.4133 135.886 19.1139C136.332 19.8154 136.619 20.588 136.747 21.4318C136.875 22.2628 136.849 23.1075 136.667 23.9659C136.468 24.8872 136.113 25.7451 135.603 26.5397C135.106 27.3226 134.489 28.0063 133.751 28.591C133.013 29.1757 132.197 29.6195 131.301 29.9226C130.419 30.2139 129.493 30.3222 128.524 30.2475ZM128.979 28.3389C129.693 28.3939 130.348 28.3032 130.943 28.0668C131.552 27.8314 132.097 27.495 132.58 27.0574C133.076 26.6081 133.488 26.101 133.813 25.5359C134.14 24.9581 134.365 24.3724 134.488 23.7788C134.642 23.1107 134.677 22.4784 134.595 21.8819C134.513 21.2854 134.323 20.7448 134.027 20.2601C133.744 19.7764 133.357 19.3873 132.866 19.093C132.377 18.7858 131.794 18.6062 131.118 18.5542C130.429 18.5011 129.774 18.5918 129.153 18.8262C128.545 19.0616 127.999 19.3981 127.517 19.8356C127.034 20.2731 126.63 20.7744 126.304 21.3395C125.978 21.9046 125.747 22.4898 125.611 23.0951C125.472 23.7259 125.437 24.3455 125.506 24.9538C125.587 25.563 125.769 26.1159 126.052 26.6123C126.348 27.097 126.735 27.4925 127.211 27.7986C127.701 28.1057 128.29 28.2858 128.979 28.3389ZM136.923 30.7982L140.838 17.4361L143 17.6026L141.354 23.23L142.808 23.342L148.682 18.0403L151.246 18.2377L144.379 24.1942L147.617 31.6219L145.264 31.4407L142.662 25.236L140.788 25.0916L139.084 30.9647L136.923 30.7982ZM151.064 31.9259L151.586 30.1379L152.505 30.2086C152.964 30.244 153.367 30.1724 153.714 29.9939C154.075 29.8036 154.394 29.4946 154.671 29.0669L154.799 28.9035L151.768 18.278L153.949 18.446L156.069 26.9037L161.066 18.9941L163.209 19.1592L156.219 29.7057C155.827 30.3041 155.431 30.7804 155.031 31.1346C154.633 31.4759 154.191 31.7177 153.705 31.8599C153.22 32.0022 152.645 32.0477 151.982 31.9966L151.064 31.9259ZM161.659 32.7035L165.574 19.3414L176.307 20.168L172.391 33.5301L170.229 33.3636L173.617 21.866L167.189 21.3709L163.82 32.87L161.659 32.7035ZM175.39 33.7611L179.306 20.3991L181.468 20.5656L179.822 26.1929L181.276 26.3049L187.15 21.0032L189.714 21.2007L182.846 27.1572L186.085 34.5849L183.732 34.4036L181.13 28.1989L179.255 28.0545L177.552 33.9277L175.39 33.7611ZM195.631 21.6565L197.525 21.8023L198.66 35.5534L196.403 35.3796L196.151 31.646L191.273 31.2702L188.903 34.8019L186.646 34.6281L195.631 21.6565ZM196.197 30.0522L195.881 24.1583L192.103 29.7369L196.197 30.0522ZM199.673 37.4982L200.686 35.594L200.016 35.5424L200.674 33.2453L202.549 33.3897L201.891 35.6868L200.649 37.5733L199.673 37.4982ZM209.113 36.3586L213.029 22.9965L223.761 23.8231L219.845 37.1852L217.684 37.0187L221.071 25.5211L214.643 25.026L211.275 36.5251L209.113 36.3586ZM226.78 24.0556L232.213 24.4741C232.876 24.5252 233.43 24.7475 233.874 25.1409C234.332 25.5226 234.667 26.0039 234.879 26.5847C235.091 27.1655 235.173 27.7684 235.125 28.3934C235.077 29.0183 234.895 29.6266 234.58 30.2181C234.278 30.8107 233.878 31.3444 233.379 31.8192C232.882 32.2812 232.321 32.6422 231.698 32.9021C231.076 33.1493 230.421 33.2464 229.732 33.1933L226.365 32.934L225.006 37.5827L222.845 37.4162L226.78 24.0556ZM230.165 31.3214C230.484 31.346 230.803 31.2872 231.122 31.1449C231.442 30.9899 231.727 30.781 231.978 30.5181C232.23 30.2424 232.435 29.9246 232.591 29.5645C232.759 29.2055 232.86 28.8155 232.892 28.3946C232.923 27.9992 232.879 27.6558 232.76 27.3644C232.655 27.0613 232.494 26.818 232.277 26.6345C232.061 26.451 231.806 26.3479 231.512 26.3253L228.394 26.0852L226.913 31.0709L230.165 31.3214ZM240.583 38.8787C239.601 38.8031 238.748 38.545 238.025 38.1044C237.302 37.6638 236.717 37.0991 236.27 36.4104C235.836 35.7098 235.549 34.9436 235.408 34.1116C235.28 33.2678 235.307 32.4167 235.489 31.5583C235.686 30.6626 236.04 29.8238 236.549 29.0419C237.059 28.2473 237.683 27.5576 238.421 26.9729C239.16 26.3755 239.977 25.9253 240.873 25.6222C241.77 25.3064 242.696 25.1853 243.653 25.259C244.648 25.3356 245.5 25.5937 246.21 26.0333C246.933 26.4739 247.512 27.0445 247.945 27.745C248.392 28.4466 248.679 29.2192 248.806 30.063C248.934 30.894 248.908 31.7387 248.726 32.5971C248.527 33.5183 248.172 34.3763 247.662 35.1709C247.165 35.9538 246.548 36.6375 245.81 37.2222C245.073 37.8068 244.256 38.2507 243.36 38.5538C242.478 38.8451 241.552 38.9534 240.583 38.8787ZM241.038 36.9701C241.752 37.0251 242.407 36.9344 243.003 36.698C243.611 36.4626 244.156 36.1261 244.639 35.6886C245.136 35.2393 245.547 34.7321 245.873 34.1671C246.199 33.5892 246.424 33.0035 246.547 32.41C246.701 31.7419 246.737 31.1096 246.654 30.5131C246.572 29.9166 246.383 29.3759 246.086 28.8913C245.803 28.4076 245.416 28.0185 244.925 27.7241C244.436 27.417 243.853 27.2374 243.177 27.1853C242.489 27.1323 241.834 27.223 241.213 27.4574C240.604 27.6928 240.059 28.0293 239.576 28.4668C239.093 28.9043 238.689 29.4056 238.363 29.9707C238.037 30.5357 237.806 31.1209 237.67 31.7263C237.532 32.3571 237.497 32.9767 237.565 33.5849C237.647 34.1942 237.829 34.7471 238.111 35.2435C238.407 35.7282 238.794 36.1236 239.271 36.4298C239.76 36.7369 240.349 36.917 241.038 36.9701ZM247.767 41.9531L249.051 37.5295L249.797 37.587C250.284 37.5988 250.752 37.3462 251.203 36.8292C251.653 36.3122 252.115 35.4754 252.589 34.3188C253.064 33.1493 253.579 31.6238 254.135 29.7421L255.155 26.2412L264.032 26.9249L260.664 38.424L262.405 38.5581L261.102 42.9802L259.208 42.8343L259.944 40.2737L250.398 39.5384L249.661 42.099L247.767 41.9531ZM252.514 37.7962L258.521 38.2589L261.342 28.6229L256.655 28.2619L255.974 30.5959C255.556 32.0262 255.156 33.2271 254.773 34.1983C254.403 35.1705 254.036 35.9441 253.671 36.519C253.306 37.0939 252.92 37.5196 252.514 37.7962ZM271.764 27.5204L273.658 27.6663L274.792 41.4174L272.535 41.2435L272.284 37.51L267.405 37.1342L265.035 40.6659L262.778 40.492L271.764 27.5204ZM272.329 35.9162L272.013 30.0222L268.235 35.6008L272.329 35.9162ZM275.336 41.4593L282.228 34.9274L279.08 28.0839L281.28 28.2534L283.996 34.2167L285.679 34.3464L287.325 28.719L289.487 28.8855L287.841 34.5129L289.314 34.6264L295.169 29.3232L297.656 29.5147L290.901 35.5184L294.314 42.921L292.018 42.7442L289.226 36.5248L287.274 36.3745L285.571 42.2476L283.409 42.0811L285.132 36.2094L283.697 36.0989L277.785 41.6479L275.336 41.4593ZM303.823 29.9898L305.717 30.1356L306.852 43.8868L304.594 43.7129L304.343 39.9793L299.465 39.6035L297.095 43.1352L294.838 42.9614L303.823 29.9898ZM304.389 38.3855L304.073 32.4916L300.295 38.0702L304.389 38.3855Z" fill="white"/>
</svg>
