<svg width="223" height="92" viewBox="0 0 223 92" fill="none" xmlns="http://www.w3.org/2000/svg">
<path d="M116.303 71.8054C175.139 60.9714 220.702 40.6036 218.071 26.3128C215.439 12.0219 165.61 9.21962 106.773 20.0537C47.9368 30.8877 2.37373 51.2554 5.00522 65.5463C7.63671 79.8372 57.4663 82.6395 116.303 71.8054Z" fill="#6800DE"/>
<path d="M49.6062 65.9553C47.8218 66.2839 46.1819 66.2265 44.6866 65.783C43.1913 65.3395 41.883 64.6101 40.7615 63.5946C39.659 62.5517 38.7858 61.3228 38.1419 59.9079C37.5169 58.4656 37.1636 56.9373 37.082 55.323C37.0108 53.635 37.2441 51.9747 37.7821 50.3422C38.3159 48.6865 39.1018 47.164 40.1398 45.7749C41.1736 44.3626 42.4165 43.1753 43.8687 42.213C45.3165 41.2276 46.9095 40.5749 48.6475 40.2549C50.4551 39.922 52.095 39.9795 53.5671 40.4272C55.0625 40.8706 56.3614 41.6138 57.4639 42.6567C58.5896 43.6954 59.4649 44.9359 60.0899 46.3782C60.7107 47.7974 61.0618 49.3141 61.1434 50.9283C61.2232 52.6627 60.9962 54.3578 60.4625 56.0135C59.9477 57.6417 59.1712 59.1504 58.1332 60.5396C57.0951 61.9287 55.85 63.1044 54.3979 64.0667C52.9647 65.0015 51.3675 65.631 49.6062 65.9553ZM49.5159 62.342C50.8137 62.103 51.9371 61.6326 52.886 60.9307C53.8582 60.2246 54.6709 59.3681 55.3241 58.3613C55.9962 57.3271 56.489 56.23 56.8026 55.0701C57.1118 53.887 57.2357 52.7381 57.1742 51.6233C57.1334 50.3609 56.899 49.218 56.471 48.1947C56.043 47.1713 55.4509 46.298 54.6947 45.5747C53.9617 44.8471 53.0891 44.3369 52.0767 44.0441C51.0601 43.7281 49.9377 43.6832 48.7095 43.9094C47.4581 44.1398 46.3347 44.6102 45.3394 45.3206C44.3672 46.0267 43.5546 46.8832 42.9014 47.89C42.2481 48.8968 41.7648 49.9802 41.4512 51.1401C41.1377 52.3 41.0022 53.4511 41.0448 54.5933C41.096 55.7819 41.3261 56.9016 41.7352 57.9524C42.1675 58.9989 42.7523 59.8976 43.4896 60.6483C44.2457 61.3717 45.1205 61.8934 46.1139 62.2137C47.1305 62.5297 48.2645 62.5724 49.5159 62.342ZM83.2403 64.4342L83.3495 59.5622L64.8216 62.9739L65.5259 37.3266L69.4539 36.6033L68.8459 58.6748L79.8306 56.6521L80.4386 34.5806L84.3667 33.8573L83.7586 55.9288L86.922 55.3463L86.6817 63.8005L83.2403 64.4342ZM91.4613 32.5509L107.278 29.6385L107.182 33.2143L95.2931 35.4034L95.0913 42.7005L105.381 40.8058L105.316 44.1603L94.9914 46.0614L94.7813 53.8991L106.983 51.6523L106.886 55.2282L90.757 58.1982L91.4613 32.5509ZM111.592 28.8441L115.52 28.1208L115.231 38.8483L126.772 36.7232L127.061 25.9957L130.954 25.2788L130.25 50.9261L126.356 51.643L126.682 40.3337L115.141 42.4588L114.816 53.7681L110.887 54.4914L111.592 28.8441ZM135.737 49.9157L136.406 24.2748L140.334 23.5515L140.058 34.3485L142.7 33.862L150.658 21.6505L155.316 20.7927L145.898 34.6389L155.168 46.3376L150.893 47.1249L143.334 37.3034L139.927 37.9307L139.665 49.1924L135.737 49.9157ZM166.069 18.8128L169.51 18.1791L178.018 42.1301L173.916 42.8854L171.707 36.3557L162.843 37.9879L160.289 45.3946L156.188 46.1499L166.069 18.8128ZM171.037 33.4961L167.694 23.1498L163.598 34.8659L171.037 33.4961Z" fill="white"/>
</svg>
