<svg width="372" height="77" viewBox="0 0 372 77" fill="none" xmlns="http://www.w3.org/2000/svg">
<path d="M0.709897 60.5001C2.6599 81.8001 87.0799 80.1801 189.36 68.1701C291.64 56.1501 373.02 37.9701 371.1 16.9901C369.27 -2.97995 284.73 -2.68993 182.45 9.32007C80.1698 21.3301 -1.2201 39.4601 0.709897 60.5001Z" fill="#6800DE"/>
<path d="M35.0344 43.0809L37.845 42.7506L43.4498 62.527L40.0998 62.9206L38.6611 57.5348L31.4217 58.3854L28.971 64.2282L25.6211 64.6219L35.0344 43.0809ZM38.2706 55.1918L36.1177 46.6664L32.1953 55.9057L38.2706 55.1918ZM47.8215 41.5784L55.8841 40.6311C56.8683 40.5154 57.7417 40.6814 58.5042 41.1291C59.2834 41.5556 59.9113 42.163 60.3876 42.9513C60.864 43.7396 61.1567 44.5974 61.2657 45.5248C61.3746 46.4522 61.2838 47.3935 60.993 48.3486C60.7213 49.3016 60.2892 50.1966 59.6968 51.0337C59.1021 51.8519 58.3867 52.5404 57.5506 53.0991C56.7122 53.639 55.782 53.9689 54.7599 54.089L49.7634 54.6761L49.111 61.8618L45.903 62.2388L47.8215 41.5784ZM54.8556 51.2284C55.3287 51.1728 55.778 50.9953 56.2033 50.6959C56.6264 50.3776 56.9838 49.9902 57.2756 49.5338C57.5651 49.0584 57.7722 48.5352 57.897 47.9641C58.0407 47.3908 58.0759 46.7918 58.0025 46.1673C57.9335 45.5805 57.7705 45.0912 57.5134 44.6993C57.273 44.2862 56.968 43.9767 56.5984 43.7707C56.2288 43.5647 55.8264 43.4872 55.3911 43.5384L50.7636 44.0821L50.0293 51.7955L54.8556 51.2284ZM64.8719 39.575L77.7892 38.0572L77.5232 40.9379L67.814 42.0787L67.267 47.9568L75.6704 46.9695L75.4412 49.6731L67.0095 50.6638L66.4274 56.9778L76.3922 55.8069L76.1262 58.6876L62.9534 60.2353L64.8719 39.575ZM81.3124 37.6433L84.5204 37.2663L83.7226 45.9082L93.1479 44.8007L93.9457 36.1589L97.1254 35.7853L95.2069 56.4456L92.0273 56.8192L92.8853 47.7097L83.46 48.8172L82.6019 57.9267L79.3939 58.3036L81.3124 37.6433ZM98.6371 59.9568L99.2443 53.1218L100.351 52.9917C101.066 52.8694 101.679 52.3657 102.189 51.4807C102.699 50.5957 103.134 49.2398 103.495 47.4129C103.854 45.5671 104.169 43.1891 104.441 40.279L104.928 34.8684L118.101 33.3207L116.477 51.097L119.06 50.7935L118.425 57.6318L115.614 57.9621L115.955 54.0077L101.789 55.6722L101.448 59.6266L98.6371 59.9568ZM104.383 52.5181L113.297 51.4706L114.655 36.5749L107.7 37.3921L107.375 40.9992C107.175 43.2102 106.934 45.0805 106.653 46.6101C106.391 48.1375 106.076 49.3738 105.707 50.3189C105.339 51.2641 104.897 51.9971 104.383 52.5181ZM129.574 31.9726L132.385 31.6423L137.989 51.4187L134.639 51.8123L133.201 46.4265L125.961 47.2771L123.511 53.1199L120.161 53.5135L129.574 31.9726ZM132.81 44.0835L130.657 35.5581L126.735 44.7974L132.81 44.0835ZM145.325 54.4711L145.932 47.6361L147.039 47.506C147.754 47.3836 148.366 46.88 148.876 45.995C149.386 45.11 149.822 43.754 150.183 41.9271C150.541 40.0813 150.857 37.7034 151.129 34.7933L151.616 29.3827L164.789 27.8349L163.164 45.6113L165.748 45.3077L165.112 52.1461L162.302 52.4763L162.643 48.5219L148.477 50.1865L148.135 54.1409L145.325 54.4711ZM151.07 47.0323L159.985 45.9849L161.343 31.0891L154.387 31.9064L154.063 35.5134C153.862 37.7244 153.622 39.5947 153.341 41.1244C153.079 42.6518 152.764 43.888 152.395 44.8332C152.026 45.7783 151.585 46.5114 151.07 47.0323ZM167.909 47.9895L168.178 45.1373C168.841 45.0595 169.436 44.8169 169.963 44.4095C170.489 43.9832 170.957 43.3141 171.368 42.4024C171.779 41.4907 172.143 40.2583 172.459 38.7053C172.792 37.1311 173.108 35.1656 173.407 32.8088L174.132 26.737L187.192 25.2026L185.302 45.8596L182.094 46.2365L183.746 28.4568L176.847 29.2674L176.378 33.352C176.026 36.0795 175.633 38.3612 175.196 40.1969C174.757 42.0138 174.209 43.4693 173.55 44.5636C172.909 45.6368 172.13 46.4382 171.214 46.968C170.316 47.4956 169.215 47.8361 167.909 47.9895ZM189.111 45.4119L195.007 35.8256C193.655 35.5816 192.632 34.963 191.94 33.9699C191.246 32.9578 190.939 31.737 191.02 30.3075C191.119 29.1831 191.451 28.1751 192.018 27.2834C192.601 26.3706 193.377 25.627 194.346 25.0527C195.334 24.4761 196.471 24.1122 197.758 23.961L205.963 22.997L204.073 43.654L200.864 44.0309L201.587 35.9735L198.635 36.3205C198.521 36.3338 198.417 36.346 198.322 36.3571C198.228 36.3683 198.124 36.3805 198.01 36.3938L192.859 44.9716L189.111 45.4119ZM197.797 33.5983L201.856 33.1213L202.485 26.2262L198.227 26.7265C197.148 26.8533 196.223 27.2306 195.453 27.8584C194.682 28.4861 194.269 29.3789 194.213 30.5368C194.194 31.1914 194.311 31.7725 194.562 32.2802C194.814 32.788 195.213 33.1632 195.759 33.406C196.304 33.6298 196.983 33.6939 197.797 33.5983ZM215.409 42.322L217.328 21.6616L231.466 20.0004L231.225 22.8493L220.266 24.1369L219.738 29.9266L225.586 29.2394C227.062 29.0659 228.282 29.1624 229.246 29.5288C230.229 29.893 230.952 30.4893 231.414 31.3177C231.873 32.1271 232.077 33.1202 232.023 34.2969C231.988 35.4715 231.712 36.5497 231.194 37.5315C230.674 38.4944 229.925 39.302 228.946 39.9543C227.965 40.5876 226.746 40.9899 225.289 41.1611L215.409 42.322ZM218.89 39.1212L224.937 38.4107C225.826 38.3061 226.545 38.0585 227.094 37.6678C227.643 37.2772 228.049 36.8074 228.31 36.2586C228.57 35.6908 228.715 35.127 228.745 34.567C228.777 34.0259 228.699 33.5266 228.511 33.069C228.321 32.5925 227.963 32.2412 227.438 32.0151C226.912 31.789 226.167 31.7327 225.202 31.8461L219.495 32.5166L218.89 39.1212ZM234.456 40.084L236.346 19.427L239.554 19.0501L238.073 35.1114L249.632 17.8659L252.613 17.5156L250.723 38.1726L247.515 38.5496L249.003 22.8038L237.578 39.7171L234.456 40.084ZM261.721 37.1106C260.169 37.2929 258.778 37.1302 257.548 36.6223C256.337 36.1123 255.4 35.3206 254.736 34.2473L257.228 32.4291C257.667 33.2218 258.279 33.783 259.066 34.1126C259.872 34.4401 260.786 34.5437 261.808 34.4236C262.679 34.3213 263.412 34.1105 264.008 33.7911C264.601 33.4527 265.05 33.0258 265.354 32.5104C265.656 31.9761 265.813 31.3532 265.825 30.6418C265.859 29.6209 265.564 28.8304 264.942 28.2703C264.337 27.6891 263.409 27.4719 262.16 27.6186L260.457 27.8188L260.678 25.2889L262.239 25.1054C262.901 25.0276 263.464 24.8367 263.927 24.5328C264.388 24.21 264.754 23.8121 265.025 23.339C265.293 22.8469 265.432 22.3126 265.441 21.7359C265.462 21.1002 265.361 20.5652 265.137 20.131C264.93 19.6757 264.585 19.3516 264.102 19.159C263.638 18.9641 263.037 18.91 262.298 18.9967C261.352 19.1079 260.486 19.4112 259.7 19.9065C258.933 20.3995 258.357 21.0524 257.973 21.8651L255.653 20.497C256.362 19.3393 257.256 18.3803 258.337 17.6201C259.416 16.8409 260.741 16.3591 262.312 16.1745C263.618 16.0211 264.741 16.1097 265.682 16.4405C266.623 16.7713 267.35 17.3286 267.864 18.1125C268.376 18.8774 268.615 19.8471 268.58 21.0216C268.557 21.9646 268.289 22.8691 267.777 23.7352C267.283 24.599 266.56 25.2981 265.606 25.8323C266.743 26.044 267.612 26.5752 268.21 27.4258C268.828 28.2742 269.115 29.3247 269.07 30.5771C269.038 31.7706 268.702 32.8365 268.064 33.7749C267.443 34.6922 266.581 35.4363 265.477 36.0073C264.393 36.576 263.141 36.9438 261.721 37.1106ZM273.94 15.0097L277.148 14.6327L276.351 23.2746L285.776 22.1671L286.574 13.5253L289.753 13.1516L287.835 33.812L284.655 34.1856L285.513 25.0761L276.088 26.1836L275.23 35.2931L272.022 35.67L273.94 15.0097ZM294.235 12.6251L307.152 11.1074L306.886 13.988L297.177 15.1288L296.63 21.007L305.033 20.0196L304.804 22.7232L296.372 23.7139L295.79 30.0279L305.755 28.857L305.489 31.7377L292.316 33.2855L294.235 12.6251ZM317.699 30.4757C316.261 30.6447 314.949 30.5015 313.763 30.0459C312.594 29.5693 311.583 28.8822 310.729 27.9848C309.892 27.0662 309.25 26.0096 308.802 24.8149C308.353 23.6014 308.148 22.3494 308.188 21.0591C308.214 19.8089 308.461 18.5615 308.929 17.3169C309.394 16.0534 310.062 14.8811 310.933 13.8003C311.821 12.6982 312.884 11.7866 314.123 11.0653C315.379 10.323 316.792 9.85948 318.363 9.6749C320.237 9.45474 321.828 9.68988 323.138 10.3803C324.463 11.0496 325.439 11.9999 326.063 13.2313L323.563 15.2232C323.202 14.4405 322.729 13.8437 322.143 13.4328C321.558 13.0219 320.913 12.7619 320.21 12.6527C319.525 12.5413 318.842 12.5256 318.161 12.6056C317.082 12.7324 316.123 13.0657 315.285 13.6055C314.463 14.1242 313.762 14.7726 313.182 15.5507C312.621 16.3266 312.193 17.1732 311.898 18.0905C311.603 19.0078 311.44 19.9096 311.41 20.7957C311.391 21.7766 311.539 22.709 311.853 23.593C312.166 24.4581 312.61 25.2118 313.184 25.8543C313.756 26.4778 314.435 26.9449 315.22 27.2557C316.023 27.5642 316.917 27.6606 317.901 27.545C318.583 27.4649 319.279 27.268 319.991 26.9541C320.721 26.638 321.399 26.2034 322.025 25.6502C322.667 25.0758 323.169 24.3645 323.53 23.5162L326.148 24.734C325.698 25.8038 325.013 26.7478 324.092 27.5659C323.171 28.384 322.145 29.0419 321.014 29.5393C319.902 30.0346 318.797 30.3467 317.699 30.4757ZM335.732 7.74927L338.542 7.41903L344.147 27.1954L340.797 27.589L339.358 22.2032L332.119 23.0538L329.668 28.8966L326.318 29.2902L335.732 7.74927ZM338.968 19.8602L336.815 11.3348L332.892 20.5741L338.968 19.8602Z" fill="white"/>
</svg>
